<svg id="Layer_1" xmlns="http://www.w3.org/2000/svg" width="841.889" height="595.281" viewBox="0 0 841.889 595.281"><path fill="#FFF" d="M479.78 182.737v-34.03h8.672v36.533c0 1.813-.835 3.102-2.545 3.877l-56.77 28.3 56.792 28.346c1.687.91 2.522 2.184 2.522 3.866v36.518h-8.672v-33.535l-60.38-30.378-59.713 30.015v33.898h-8.682v-36.52c0-1.68.765-2.956 2.288-3.865l56.66-28.244-56.722-28.308c-1.476-.753-2.225-2.066-2.225-3.877v-36.63h8.682v34.05l59.986 29.905 60.107-29.923zM282.285 217.45c0 75.885 61.528 137.434 137.432 137.434 75.924 0 137.44-61.55 137.44-137.435 0-75.897-61.517-137.447-137.44-137.447-75.903 0-137.432 61.55-137.432 137.446"/><g fill="#FFF"><path d="M25.98 491.198H-.33v-67.6h25.447c11.775 0 19.943 6.728 19.943 18.025 0 7.136-4.285 12.728-9.97 14.83 6.445 2.37 11.008 7.958 11.008 16.037 0 12.23-8.165 18.708-20.118 18.708m-1.43-61.152H6.896v23.444H24.55c7.495 0 13.297-3.682 13.297-11.748 0-8.08-5.802-11.696-13.297-11.696m.754 29.923H6.896v24.75h18.41c8.353 0 13.58-4.817 13.58-12.43 0-7.59-5.228-12.32-13.582-12.32M69.774 491.2v-67.602h7.21v61.122h34.56v6.48zM128.163 423.6h7.22v67.602h-7.22zM201.838 491.2l-16.408-28.392-16.508 28.392h-8.17l20.676-34.655-19.355-32.947h8.348l15.01 26.668 14.983-26.668h8.36l-19.46 32.947 20.89 34.655zM297.02 491.768c-10.15 0-16.8-2.566-23.16-8.922l4.937-4.937c5.578 5.577 10.82 7.38 18.41 7.38 9.867 0 15.94-4.646 15.94-12.522 0-3.495-1.04-6.55-3.224-8.443-2.186-1.91-3.888-2.48-8.83-3.224l-7.863-1.25c-5.327-.864-9.505-2.542-12.437-5.114-3.43-3.04-5.138-7.203-5.138-12.62 0-11.495 8.25-19.095 21.64-19.095 8.637 0 14.347 2.214 20.135 7.423l-4.654 4.655c-4.176-3.804-8.643-5.795-15.76-5.795-9.033 0-14.245 5.02-14.245 12.513 0 3.35.954 6 3.038 7.792 2.094 1.8 5.6 3.14 9.108 3.717l7.4 1.14c6.368.94 9.505 2.276 12.354 4.722 3.7 3.15 5.688 7.787 5.688 13.384.002 11.866-9.294 19.198-23.34 19.198M384.86 484.72c-4.57 4.562-10.543 7.05-17.29 7.05-6.73 0-12.73-2.487-17.27-7.05-6.36-6.356-6.36-13-6.36-27.318 0-14.356 0-21 6.36-27.356 4.54-4.54 10.54-7.024 17.27-7.024 6.746 0 12.718 2.485 17.29 7.024 6.36 6.356 6.36 13 6.36 27.356 0 14.317 0 20.962-6.36 27.318m-5.612-50.395c-2.932-3.03-7.213-4.816-11.677-4.816-4.468 0-8.722 1.785-11.667 4.815-4.286 4.363-4.75 8.93-4.75 23.077 0 14.144.464 18.674 4.75 23.07 2.945 3.016 7.2 4.82 11.668 4.82 4.465 0 8.746-1.805 11.678-4.82 4.263-4.396 4.757-8.927 4.757-23.07 0-14.148-.494-18.714-4.757-23.077M417.828 491.2v-67.602h7.214v61.122h34.55v6.48zM498.993 491.768c-13.657 0-23.528-9.42-23.528-22.88V423.6h7.212v44.728c0 10.234 6.452 16.966 16.316 16.966 9.87 0 16.432-6.73 16.432-16.966v-44.728h7.217v45.29c0 13.46-9.95 22.88-23.65 22.88M570.404 430.046V491.2h-7.22v-61.154H543.62v-6.448h46.347v6.448zM611.325 423.6h7.203v67.602h-7.203zM685.975 484.72c-4.53 4.562-10.51 7.05-17.24 7.05-6.772 0-12.73-2.487-17.28-7.05-6.374-6.356-6.374-13-6.374-27.318 0-14.356 0-21 6.374-27.356 4.55-4.54 10.51-7.024 17.28-7.024 6.73 0 12.71 2.485 17.24 7.024 6.368 6.356 6.368 13 6.368 27.356 0 14.317 0 20.962-6.367 27.318m-5.58-50.395c-2.93-3.03-7.222-4.816-11.66-4.816-4.478 0-8.773 1.785-11.71 4.815-4.24 4.363-4.712 8.93-4.712 23.077 0 14.144.47 18.674 4.713 23.07 2.936 3.016 7.23 4.82 11.708 4.82 4.44 0 8.73-1.805 11.662-4.82 4.28-4.396 4.732-8.927 4.732-23.07 0-14.148-.453-18.714-4.732-23.077M762.056 491.2l-35.872-54.227V491.2h-7.236v-67.602h6.867l35.877 54.03v-54.03h7.212V491.2zM816.416 491.768c-10.148 0-16.8-2.566-23.155-8.922l4.936-4.937c5.58 5.577 10.82 7.38 18.423 7.38 9.874 0 15.94-4.646 15.94-12.522 0-3.495-1.054-6.55-3.223-8.443-2.186-1.91-3.912-2.48-8.842-3.224l-7.874-1.25c-5.333-.864-9.497-2.542-12.435-5.114-3.43-3.04-5.145-7.203-5.145-12.62 0-11.495 8.273-19.095 21.663-19.095 8.646 0 14.312 2.214 20.097 7.423l-4.64 4.655c-4.158-3.804-8.595-5.795-15.745-5.795-9.02 0-14.22 5.02-14.22 12.513 0 3.35.927 6 3.01 7.792 2.08 1.8 5.63 3.14 9.13 3.717l7.39 1.14c6.355.94 9.49 2.276 12.343 4.722 3.717 3.15 5.716 7.787 5.716 13.384 0 11.866-9.3 19.198-23.368 19.198"/></g></svg>