<?xml version="1.0" encoding="utf-8"?>
<!-- Generator: Adobe Illustrator 16.0.0, SVG Export Plug-In . SVG Version: 6.00 Build 0)  -->
<!DOCTYPE svg PUBLIC "-//W3C//DTD SVG 1.1//EN" "http://www.w3.org/Graphics/SVG/1.1/DTD/svg11.dtd">
<svg version="1.1" id="Layer_1" xmlns="http://www.w3.org/2000/svg" xmlns:xlink="http://www.w3.org/1999/xlink" x="0px" y="0px"
	 width="841.889px" height="595.281px" viewBox="0 0 841.889 595.281" enable-background="new 0 0 841.889 595.281"
	 xml:space="preserve">
<path fill="#FFFFFF" d="M479.78,182.737v-34.031h8.672v36.534c0,1.813-0.835,3.102-2.545,3.877l-56.771,28.3l56.793,28.346
	c1.688,0.909,2.523,2.184,2.523,3.866v36.519h-8.672v-33.535L419.4,222.235l-59.713,30.015v33.898h-8.682v-36.519
	c0-1.682,0.765-2.957,2.288-3.866l56.66-28.244l-56.722-28.307c-1.477-0.753-2.226-2.066-2.226-3.877v-36.629h8.682v34.048
	l59.986,29.906L479.78,182.737z M282.285,217.449c0,75.886,61.528,137.435,137.432,137.435c75.924,0,137.441-61.549,137.441-137.435
	c0-75.896-61.518-137.446-137.441-137.446C343.814,80.004,282.285,141.553,282.285,217.449"/>
<g>
	<path fill="#FFFFFF" d="M25.98,491.198H-0.33v-67.6h25.447c11.775,0,19.943,6.728,19.943,18.025c0,7.136-4.285,12.728-9.97,14.829
		c6.445,2.371,11.008,7.959,11.008,16.038C46.098,484.719,37.933,491.198,25.98,491.198 M24.55,430.046H6.896v23.444H24.55
		c7.495,0,13.297-3.682,13.297-11.748C37.847,433.663,32.045,430.046,24.55,430.046 M25.304,459.969H6.896v24.75h18.409
		c8.354,0,13.581-4.816,13.581-12.429C38.885,464.7,33.658,459.969,25.304,459.969"/>
	<polygon fill="#FFFFFF" points="69.774,491.2 69.774,423.598 76.983,423.598 76.983,484.72 111.543,484.72 111.543,491.2 	"/>
	<rect x="128.163" y="423.6" fill="#FFFFFF" width="7.22" height="67.602"/>
	<polygon fill="#FFFFFF" points="201.838,491.2 185.43,462.808 168.922,491.2 160.751,491.2 181.428,456.545 162.073,423.598 
		170.421,423.598 185.43,450.266 200.413,423.598 208.772,423.598 189.312,456.545 210.203,491.2 	"/>
	<path fill="#FFFFFF" d="M297.019,491.768c-10.148,0-16.8-2.566-23.16-8.922l4.938-4.937c5.578,5.578,10.82,7.382,18.409,7.382
		c9.868,0,15.94-4.647,15.94-12.523c0-3.495-1.038-6.55-3.223-8.443c-2.186-1.91-3.888-2.481-8.831-3.224l-7.862-1.25
		c-5.327-0.865-9.505-2.543-12.437-5.115c-3.429-3.041-5.138-7.203-5.138-12.62c0-11.495,8.25-19.095,21.639-19.095
		c8.638,0,14.348,2.213,20.136,7.422l-4.654,4.655c-4.176-3.804-8.643-5.795-15.759-5.795c-9.034,0-14.246,5.02-14.246,12.513
		c0,3.349,0.953,6,3.037,7.792c2.094,1.8,5.601,3.14,9.108,3.717l7.4,1.14c6.368,0.939,9.505,2.276,12.354,4.722
		c3.701,3.15,5.688,7.787,5.688,13.384C320.36,484.436,311.064,491.768,297.019,491.768"/>
	<path fill="#FFFFFF" d="M384.86,484.72c-4.571,4.562-10.543,7.05-17.289,7.05c-6.732,0-12.731-2.487-17.271-7.05
		c-6.361-6.356-6.361-13.001-6.361-27.318c0-14.356,0-21,6.361-27.356c4.54-4.539,10.539-7.024,17.271-7.024
		c6.745,0,12.717,2.485,17.289,7.024c6.359,6.356,6.359,13,6.359,27.356C391.219,471.719,391.219,478.364,384.86,484.72
		 M379.248,434.325c-2.932-3.03-7.213-4.816-11.677-4.816c-4.469,0-8.723,1.786-11.668,4.816c-4.286,4.363-4.751,8.929-4.751,23.077
		c0,14.144,0.465,18.674,4.751,23.071c2.945,3.015,7.199,4.818,11.668,4.818c4.464,0,8.745-1.804,11.677-4.818
		c4.263-4.397,4.757-8.928,4.757-23.071C384.006,443.254,383.511,438.688,379.248,434.325"/>
	<polygon fill="#FFFFFF" points="417.828,491.2 417.828,423.598 425.042,423.598 425.042,484.72 459.593,484.72 459.593,491.2 	"/>
	<path fill="#FFFFFF" d="M498.993,491.768c-13.657,0-23.528-9.42-23.528-22.879v-45.291h7.212v44.728
		c0,10.234,6.452,16.966,16.316,16.966c9.871,0,16.432-6.731,16.432-16.966v-44.728h7.217v45.291
		C522.642,482.348,512.693,491.768,498.993,491.768"/>
	<polygon fill="#FFFFFF" points="570.404,430.046 570.404,491.2 563.185,491.2 563.185,430.046 543.618,430.046 543.618,423.598 
		589.965,423.598 589.965,430.046 	"/>
	<rect x="611.325" y="423.6" fill="#FFFFFF" width="7.203" height="67.602"/>
	<path fill="#FFFFFF" d="M685.975,484.72c-4.53,4.562-10.511,7.05-17.241,7.05c-6.771,0-12.73-2.487-17.28-7.05
		c-6.373-6.356-6.373-13.001-6.373-27.318c0-14.356,0-21,6.373-27.356c4.55-4.539,10.509-7.024,17.28-7.024
		c6.73,0,12.711,2.485,17.241,7.024c6.367,6.356,6.367,13,6.367,27.356C692.342,471.719,692.342,478.364,685.975,484.72
		 M680.396,434.325c-2.931-3.03-7.223-4.816-11.662-4.816c-4.477,0-8.772,1.786-11.708,4.816c-4.242,4.363-4.713,8.929-4.713,23.077
		c0,14.144,0.471,18.674,4.713,23.071c2.936,3.015,7.231,4.818,11.708,4.818c4.439,0,8.731-1.804,11.662-4.818
		c4.279-4.397,4.732-8.928,4.732-23.071C685.128,443.254,684.675,438.688,680.396,434.325"/>
	<polygon fill="#FFFFFF" points="762.056,491.2 726.184,436.973 726.184,491.2 718.948,491.2 718.948,423.598 725.815,423.598 
		761.692,477.627 761.692,423.598 768.904,423.598 768.904,491.2 	"/>
	<path fill="#FFFFFF" d="M816.416,491.768c-10.148,0-16.799-2.566-23.155-8.922l4.935-4.937c5.581,5.578,10.82,7.382,18.423,7.382
		c9.875,0,15.94-4.647,15.94-12.523c0-3.495-1.053-6.55-3.222-8.443c-2.186-1.91-3.912-2.481-8.842-3.224l-7.874-1.25
		c-5.334-0.865-9.498-2.543-12.436-5.115c-3.43-3.041-5.145-7.203-5.145-12.62c0-11.495,8.273-19.095,21.663-19.095
		c8.646,0,14.312,2.213,20.097,7.422l-4.64,4.655c-4.158-3.804-8.595-5.795-15.745-5.795c-9.021,0-14.22,5.02-14.22,12.513
		c0,3.349,0.927,6,3.011,7.792c2.08,1.8,5.628,3.14,9.129,3.717l7.39,1.14c6.355,0.939,9.489,2.276,12.343,4.722
		c3.717,3.15,5.716,7.787,5.716,13.384C839.784,484.436,830.485,491.768,816.416,491.768"/>
</g>
</svg>
