<svg id="Layer_1" xmlns="http://www.w3.org/2000/svg" viewBox="0 0 200 54"><g fill="#FFF"><path d="M199.5 16c0-8.5-6.9-15.3-15.3-15.3h-1.6V9h1.6c3.9 0 7 3.2 7 7 0 3.5-2.5 6.4-5.9 6.9h-22v8.3h22c3.4.6 5.8 3.5 5.8 6.9 0 3.9-3.2 7-7 7h-1.6v8.3h1.6c8.5 0 15.3-6.9 15.3-15.3 0-4.2-1.7-8.2-4.8-11.1 3.2-2.8 4.9-6.8 4.9-11z"/><path d="M157.3 9h20.1V.7H149v52.8h27.7v-8.2h-19.4z"/></g><g fill="#FFF"><path d="M.5.8h19v5.6H7V10h11.4v5.2H7V19h12.7v5.6H.5V.8zM23.2.8h6.6v23.7h-6.6V.8zM34.1.8h9.1c8.4 0 13.3 4.9 13.3 11.7v.1c0 6.8-5 11.9-13.5 11.9h-9V.8zm9.2 17.9c3.9 0 6.5-2.2 6.5-6v-.1c0-3.8-2.6-6-6.5-6h-2.7v12h2.7zM57.8 20.9l3.6-4.4c2.3 1.9 4.9 2.8 7.7 2.8 1.8 0 2.7-.6 2.7-1.6v-.1c0-1-.8-1.5-4-2.3-5-1.1-8.9-2.6-8.9-7.4V8c0-4.4 3.5-7.6 9.2-7.6 4 0 7.2 1.1 9.7 3.1l-3.3 4.6c-2.2-1.5-4.5-2.3-6.6-2.3-1.6 0-2.4.7-2.4 1.5v.1c0 1.1.8 1.6 4.1 2.3 5.4 1.2 8.8 2.9 8.8 7.4v.1c0 4.8-3.8 7.7-9.6 7.7-4.1 0-8.1-1.3-11-4zM81.8.8h6.6v23.7h-6.6V.8zM90.8.8h7.3l5.4 15 5.4-15h7.2l-9.6 23.8h-6.1L90.8.8zM122.5.6h6.3l10.1 23.8h-7l-1.7-4.2H121l-1.7 4.2h-6.9L122.5.6zm5.7 14.5l-2.6-6.7-2.7 6.7h5.3zM8.3 53.9c-3 0-5-1.7-6.3-3.6v3.3H.6V31.7H2v10c1.3-2 3.3-3.8 6.3-3.8 3.7 0 7.4 3 7.4 7.9v.1c0 5-3.7 8-7.4 8zm5.8-8c0-4-2.8-6.6-6-6.6C5 39.3 2 42 2 45.9v.1c0 3.9 3 6.5 6.2 6.5 3.3 0 5.9-2.4 5.9-6.6zM28.3 39.7c-3.5 0-6.6 2.7-6.6 7.6v6.2h-1.5V38.3h1.5v4.3c1.2-2.7 3.7-4.7 6.7-4.6v1.6h-.1zM38 52.5c2.4 0 4-1 5.2-2.4l1 .9c-1.6 1.7-3.4 2.9-6.3 2.9-4 0-7.5-3.2-7.5-7.9v-.1c0-4.4 3.1-7.9 7.2-7.9 4.3 0 7 3.5 7 8v.5H32c.3 3.8 3 6 6 6zm5.1-7.3c-.2-3.1-2-5.9-5.5-5.9-3 0-5.3 2.5-5.6 5.9h11.1zM61.6 53.5v-3.4c-1.3 2-3.3 3.8-6.3 3.8-3.7 0-7.4-3-7.4-7.9v-.1c0-5 3.7-8 7.4-8 3 0 5 1.7 6.3 3.6v-9.8h1.5v21.8h-1.5zm.1-7.6c0-3.9-3-6.5-6.2-6.5-3.3 0-6 2.4-6 6.5v.1c0 4 2.8 6.6 6 6.6 3.1-.1 6.2-2.8 6.2-6.7zM76.3 53.9c-3 0-5-1.7-6.3-3.6v3.3h-1.5V31.7H70v10c1.3-2 3.3-3.8 6.3-3.8 3.7 0 7.4 3 7.4 7.9v.1c0 5-3.7 8-7.4 8zm5.9-8c0-4-2.8-6.6-6-6.6S70 42 70 45.9v.1c0 3.9 3 6.5 6.2 6.5 3.3 0 6-2.4 6-6.6zM98.8 53.5V51c-1 1.5-2.9 2.9-5.8 2.9-2.8 0-5.9-1.6-5.9-4.8V49c0-3.2 2.7-5 6.7-5 2.1 0 3.6.3 5 .7V44c0-3.1-1.9-4.7-5-4.7-1.9 0-3.4.5-4.8 1.2l-.5-1.3c1.7-.8 3.3-1.3 5.4-1.3 3.9 0 6.4 2 6.4 6v9.5h-1.5zm0-7.4c-1.3-.3-3-.7-5.2-.7-3.2 0-5 1.4-5 3.6s2.1 3.5 4.4 3.5c3.1 0 5.8-1.9 5.8-4.7v-1.7zm-4.6-10.3c-1.6 0-2.9-1.3-2.9-2.8 0-1.6 1.4-2.8 2.9-2.8 1.6 0 2.9 1.3 2.9 2.8 0 1.6-1.4 2.8-2.9 2.8zm0-4.6c-1 0-1.9.8-1.9 1.9 0 1 .8 1.9 1.9 1.9 1 0 1.9-.8 1.9-1.9-.1-1.1-.9-1.9-1.9-1.9zM117 53.5v-9c0-3.1-1.8-5.2-4.8-5.2s-5.3 2.3-5.3 5.4v8.8h-1.5V38.3h1.5v2.8c1-1.8 2.7-3.2 5.5-3.2 3.9 0 6.1 2.6 6.1 6.3v9.3H117zM136.4 53.5v-3.4c-1.3 2-3.3 3.8-6.3 3.8-3.7 0-7.4-3-7.4-7.9v-.1c0-5 3.7-8 7.4-8 3 0 5 1.7 6.3 3.6v-9.8h1.5v21.8h-1.5zm.1-7.6c0-3.9-3-6.5-6.2-6.5-3.3 0-6 2.4-6 6.5v.1c0 4 2.8 6.6 6 6.6 3.2-.1 6.2-2.8 6.2-6.7z"/></g></svg>