<?xml version="1.0" encoding="utf-8"?>
<!-- Generator: Adobe Illustrator 18.1.1, SVG Export Plug-In . SVG Version: 6.00 Build 0)  -->
<svg version="1.1" id="Layer_1" xmlns="http://www.w3.org/2000/svg" xmlns:xlink="http://www.w3.org/1999/xlink" x="0px" y="0px"
	 viewBox="0 0 200 54" enable-background="new 0 0 200 54" xml:space="preserve">
<g>
	<path fill="#FFFFFF" d="M199.5,16c0-8.5-6.9-15.3-15.3-15.3h-1.6V9h1.6c3.9,0,7,3.2,7,7c0,3.5-2.5,6.4-5.9,6.9c-0.1,0-0.2,0-0.2,0
		h-21.8v8.3h21.5c0.2,0,0.3,0,0.5,0c3.4,0.6,5.8,3.5,5.8,6.9c0,3.9-3.2,7-7,7h-1.6v8.3h1.6c8.5,0,15.3-6.9,15.3-15.3
		c0-4.2-1.7-8.2-4.8-11.1C197.8,24.2,199.5,20.2,199.5,16z"/>
	<polygon fill="#FFFFFF" points="157.3,9 177.4,9 177.4,0.7 157.3,0.7 156.8,0.7 149,0.7 149,53.5 156.8,53.5 156.8,53.5 
		176.7,53.5 176.7,45.3 157.3,45.3 	"/>
</g>
<g>
	<path fill="#FFFFFF" d="M0.5,0.8h19v5.6H7V10h11.4v5.2H7v3.8h12.7v5.6H0.5V0.8z"/>
	<path fill="#FFFFFF" d="M23.2,0.8h6.6v23.7h-6.6V0.8z"/>
	<path fill="#FFFFFF" d="M34.1,0.8h9.1c8.4,0,13.3,4.9,13.3,11.7v0.1c0,6.8-5,11.9-13.5,11.9h-9V0.8z M43.3,18.7
		c3.9,0,6.5-2.2,6.5-6v-0.1c0-3.8-2.6-6-6.5-6h-2.7v12H43.3z"/>
	<path fill="#FFFFFF" d="M57.8,20.9l3.6-4.4c2.3,1.9,4.9,2.8,7.7,2.8c1.8,0,2.7-0.6,2.7-1.6v-0.1c0-1-0.8-1.5-4-2.3
		c-5-1.1-8.9-2.6-8.9-7.4V8c0-4.4,3.5-7.6,9.2-7.6c4,0,7.2,1.1,9.7,3.1l-3.3,4.6c-2.2-1.5-4.5-2.3-6.6-2.3c-1.6,0-2.4,0.7-2.4,1.5
		v0.1c0,1.1,0.8,1.6,4.1,2.3c5.4,1.2,8.8,2.9,8.8,7.4v0.1c0,4.8-3.8,7.7-9.6,7.7C64.7,24.9,60.7,23.6,57.8,20.9z"/>
	<path fill="#FFFFFF" d="M81.8,0.8h6.6v23.7h-6.6V0.8z"/>
	<path fill="#FFFFFF" d="M90.8,0.8h7.3l5.4,15l5.4-15h7.2l-9.6,23.8h-6.1L90.8,0.8z"/>
	<path fill="#FFFFFF" d="M122.5,0.6h6.3l10.1,23.8h-7l-1.7-4.2H121l-1.7,4.2h-6.9L122.5,0.6z M128.2,15.1l-2.6-6.7l-2.7,6.7H128.2z"
		/>
	<path fill="#FFFFFF" d="M8.3,53.9c-3,0-5-1.7-6.3-3.6v3.3H0.6V31.7H2v10c1.3-2,3.3-3.8,6.3-3.8c3.7,0,7.4,3,7.4,7.9v0.1
		C15.7,50.9,12,53.9,8.3,53.9z M14.1,45.9c0-4-2.8-6.6-6-6.6C5,39.3,2,42,2,45.9v0.1c0,3.9,3,6.5,6.2,6.5
		C11.5,52.5,14.1,50.1,14.1,45.9L14.1,45.9z"/>
	<path fill="#FFFFFF" d="M28.3,39.7c-3.5,0-6.6,2.7-6.6,7.6v6.2h-1.5V38.3h1.5v4.3c1.2-2.7,3.7-4.7,6.7-4.6v1.6H28.3z"/>
	<path fill="#FFFFFF" d="M38,52.5c2.4,0,4-1,5.2-2.4l1,0.9c-1.6,1.7-3.4,2.9-6.3,2.9c-4,0-7.5-3.2-7.5-7.9v-0.1
		c0-4.4,3.1-7.9,7.2-7.9c4.3,0,7,3.5,7,8V46c0,0.2,0,0.3,0,0.5H32C32.3,50.3,35,52.5,38,52.5z M43.1,45.2c-0.2-3.1-2-5.9-5.5-5.9
		c-3,0-5.3,2.5-5.6,5.9H43.1z"/>
	<path fill="#FFFFFF" d="M61.6,53.5v-3.4c-1.3,2-3.3,3.8-6.3,3.8c-3.7,0-7.4-3-7.4-7.9v-0.1c0-5,3.7-8,7.4-8c3,0,5,1.7,6.3,3.6v-9.8
		h1.5v21.8H61.6z M61.7,45.9c0-3.9-3-6.5-6.2-6.5c-3.3,0-6,2.4-6,6.5v0.1c0,4,2.8,6.6,6,6.6C58.6,52.5,61.7,49.8,61.7,45.9
		L61.7,45.9z"/>
	<path fill="#FFFFFF" d="M76.3,53.9c-3,0-5-1.7-6.3-3.6v3.3h-1.5V31.7h1.5v10c1.3-2,3.3-3.8,6.3-3.8c3.7,0,7.4,3,7.4,7.9v0.1
		C83.7,50.9,80,53.9,76.3,53.9z M82.2,45.9c0-4-2.8-6.6-6-6.6C73,39.3,70,42,70,45.9v0.1c0,3.9,3,6.5,6.2,6.5
		C79.5,52.5,82.2,50.1,82.2,45.9L82.2,45.9z"/>
	<path fill="#FFFFFF" d="M98.8,53.5V51c-1,1.5-2.9,2.9-5.8,2.9c-2.8,0-5.9-1.6-5.9-4.8V49c0-3.2,2.7-5,6.7-5c2.1,0,3.6,0.3,5,0.7
		v-0.7c0-3.1-1.9-4.7-5-4.7c-1.9,0-3.4,0.5-4.8,1.2l-0.5-1.3c1.7-0.8,3.3-1.3,5.4-1.3c3.9,0,6.4,2,6.4,6v9.5H98.8z M98.8,46.1
		c-1.3-0.3-3-0.7-5.2-0.7c-3.2,0-5,1.4-5,3.6V49c0,2.2,2.1,3.5,4.4,3.5c3.1,0,5.8-1.9,5.8-4.7V46.1z M94.2,35.8
		c-1.6,0-2.9-1.3-2.9-2.8c0-1.6,1.4-2.8,2.9-2.8c1.6,0,2.9,1.3,2.9,2.8C97.1,34.6,95.7,35.8,94.2,35.8z M94.2,31.2
		c-1,0-1.9,0.8-1.9,1.9c0,1,0.8,1.9,1.9,1.9c1,0,1.9-0.8,1.9-1.9C96,32,95.2,31.2,94.2,31.2z"/>
	<path fill="#FFFFFF" d="M117,53.5v-9c0-3.1-1.8-5.2-4.8-5.2c-3,0-5.3,2.3-5.3,5.4v8.8h-1.5V38.3h1.5v2.8c1-1.8,2.7-3.2,5.5-3.2
		c3.9,0,6.1,2.6,6.1,6.3v9.3H117z"/>
	<path fill="#FFFFFF" d="M136.4,53.5v-3.4c-1.3,2-3.3,3.8-6.3,3.8c-3.7,0-7.4-3-7.4-7.9v-0.1c0-5,3.7-8,7.4-8c3,0,5,1.7,6.3,3.6
		v-9.8h1.5v21.8H136.4z M136.5,45.9c0-3.9-3-6.5-6.2-6.5c-3.3,0-6,2.4-6,6.5v0.1c0,4,2.8,6.6,6,6.6
		C133.5,52.5,136.5,49.8,136.5,45.9L136.5,45.9z"/>
</g>
</svg>
