<svg id="Pixel" xmlns="http://www.w3.org/2000/svg" viewBox="0 0 600 150"><g fill="#FFF"><path d="M163.9 48.1H154V46h22.9v2.1H169v3.1h7.9v2H169v39h-2.2v-39h-2.9v39h-2.1v-39H154v-2H166.7v-3.1h-2.8zM201.4 46h2.1v46.1h-2.1V74.6h-16.7v3.1h13.5v14.4h-2.1V79.8H190v12.3h-2.1V79.8h-3.1v12.3h-2.1V46h2.1v26.5h3.1V46h2.1v26.5h6.2V46h2.1v26.5h3.1V46zM213.6 48v17.6h3.1V51h13v2.1h-10.9v12.5h10.9v2h-16.1V85h3.1V70.7h13v2h-10.9V85h10.9v2.1h-10.9v3.1h10.9v2h-18.1V46h18.1v2h-16.1zm3.1 42.1V87h-3.1v3.1h3.1zM267.8 65.7v2h-16.1v24.5h-2.1V46h18.3v2h-11v3h11v2.1h-11v12.5h10.9zM254.7 48h-3.1v3h3.1v-3zm0 5.2h-3.1v12.5h3.1V53.2zm2 17.6h11v2.1h-11v19.3h-2V70.8h2zM294.7 46v36c0 2.4-.9 4.9-2.7 6.8-1.9 2.1-4.8 3.4-7.6 3.4s-5.7-1.2-7.6-3.4c-1-1.1-1.7-2.3-2.1-3.6-.3-.9-.5-1.9-.5-3.2V46h2v36c0 2 .8 3.9 2.1 5.5 1.6 1.8 3.9 2.7 6.2 2.7 2.3 0 4.6-.9 6.2-2.7 1.3-1.5 2-3.4 2.2-5.5V46h1.8zM279 81.9V46h2V81.8c0 .8.3 1.6.9 2.3.6.8 1.5 1.1 2.5 1.1s1.9-.3 2.5-1.1c.6-.6.8-1.4.9-2.3V46h2V81.9c0 1.3-.6 2.6-1.4 3.6-1 1.1-2.4 1.7-4 1.7s-2.9-.6-4-1.7c-.9-.9-1.4-2.1-1.4-3.6zM310.3 48.1h-9.8V46h22.9v2.1h-7.9v3.1h7.9v2h-7.9v39h-2.2v-39h-2.9v39h-2.1v-39h-7.7v-2H313.3v-3.1h-3zM349.8 46v36c0 2.4-.9 4.9-2.7 6.8-1.9 2.1-4.8 3.4-7.6 3.4s-5.7-1.2-7.6-3.4c-1-1.1-1.7-2.3-2.1-3.6-.3-.9-.5-1.9-.5-3.2V46h2v36c0 2 .8 3.9 2.1 5.5 1.6 1.8 3.9 2.7 6.2 2.7s4.6-.9 6.2-2.7c1.3-1.5 2-3.4 2.2-5.5V46h1.8zM334 81.9V46h2V81.8c0 .8.3 1.6.9 2.3.6.8 1.5 1.1 2.5 1.1s1.9-.3 2.5-1.1c.6-.6.8-1.4.9-2.3V46h2V81.9c0 1.3-.6 2.6-1.4 3.6-1 1.1-2.4 1.7-4 1.7s-2.9-.6-4-1.7c-.8-.9-1.3-2.1-1.4-3.6zM371.7 76.4l1.5-1.8c3.4-4.8 4-11.1 1.7-16.5-2.3-5.1-7.1-9-12.8-9.8l1.5 3.5c5.2 1.7 9.1 6.4 9.5 11.9.5 5.6-2.7 11.2-7.8 13.5v3.4c1.4-.5 2.7-1.2 3.9-2.1l5.7 13.6h-2.3l-4.5-10.6c-.9.5-1.9.9-2.9 1.2v9.4h-2.1V69.8l-3.1-7.4v29.8h-2V52.1l9.1 21.5c.9-.9 1.7-1.7 2.3-2.7L358.9 46c2.3-.1 4.5.2 6.5.9 5.7 1.9 10.3 6.5 12.1 12.2 1.9 6 .7 12.7-3.4 17.7l6.5 15.4h-2.3l-6.6-15.8zm-1.2-8.1c1.3-4.2.1-8.7-2.8-11.7-.8-.8-1.6-1.4-2.4-1.8V56l5.2 12.3zM386.8 48v17.6h3.1V51h13v2.1H392v12.5h10.9v2h-16.1V85h3.1V70.7h13v2H392V85h10.9v2.1H392v3.1h10.9v2h-18.1V46h18.1v2h-16.1zm3.1 42.1V87h-3.1v3.1h3.1zM439.3 48H434v3.1h5.3v2.1H434v31.6h5.3V87h-10.2v3.1h10.2v2.1h-17.5v-2.1h5.3V87h-5.3v-2.1h5.3V53.2h-5.3v-2.1H432V48h-10.2v-2h17.5v2zM432 84.9V53.2h-2.9v31.6h2.9zM461.5 56.3c-1.2-1.8-3.2-3-5.2-3-1 0-2 .2-2.9.8-.9.5-1.5 1.2-1.9 2-.4.8-.5 1.7-.4 2.6.2.9.6 1.7 1.3 2.5.7.8 1.3 1 3.1 2.1 1.4.9 2.8 1.6 4.4 2.5s3 1.9 4.6 3.3c.8.7 1.5 1.4 2.2 2.4.6 1 1.2 2 1.6 3.1.4 1.2.6 2.3.6 3.5.1 1.1-.1 2.2-.2 3.2-.3 2.3-1.2 4.5-2.8 6.2s-3.5 3.1-5.7 3.8c-2.1.8-4.4.9-6.7.5-2.1-.4-4.1-1.2-5.9-2.3-1.7-1.1-3.2-2.4-4.5-3.9l1.6-1.3c1.2 1.4 2.6 2.5 4 3.5 1.6 1 3.3 1.7 5.1 2s3.8.2 5.7-.4c1.9-.6 3.5-1.7 4.7-3.2 1.3-1.6 2.1-3.4 2.4-5.2.3-1.8.3-3.8-.3-5.7-.6-1.9-1.9-3.5-3.2-4.7-1.4-1.2-2.8-2.1-4.3-3-1.4-.9-2.9-1.6-4.3-2.5l-1.1-.6c-.9-.5-1.7-1.2-2.5-1.9-1-1.1-1.6-2.3-1.8-3.6-.2-1.3-.1-2.6.6-3.9.6-1.3 1.5-2.3 2.7-2.9 1.2-.7 2.5-1 3.9-1 2.7 0 5.7 1.6 6.9 4l-1.7 1.1zm4.4-2.8c-.3-.5-.6-.8-.9-1.2l-1-1c-.8-.7-1.5-1.3-2.3-1.7-1.7-1-3.5-1.6-5.5-1.6-1 0-1.9.1-2.8.3-.9.2-1.9.6-2.7 1.1-1.7 1-3.1 2.4-3.9 4.2-.9 1.8-1.2 3.8-.9 5.8.3 2 1.2 3.7 2.6 5.1.7.8 1.4 1.4 2.1 1.9 2.1 1.4 4.3 2.4 6.5 3.8 2.7 1.6 5.3 3.5 6.2 6.1.4 1.2.5 2.5.2 4.1-.2 1.4-.8 2.7-1.7 3.7s-2 1.8-3.4 2.3c-1.4.4-2.8.5-4.2.3-2.8-.5-5.3-2.3-7.3-4.5l1.6-1.4c1.8 2 3.9 3.4 6.1 3.8 2.3.4 4.3-.2 5.6-1.8.6-.8 1-1.7 1.2-2.7.2-1.2.2-2.3-.1-3.1-.3-.8-.9-1.6-1.8-2.5-1-.9-2.1-1.7-3.5-2.4-3.2-1.9-6.7-3.3-9.1-6-1.6-1.6-2.7-3.8-3.1-6.2-.4-2.4-.1-4.9 1-7 1.1-2.2 2.7-3.9 4.7-5.1 1.1-.6 2.1-1 3.2-1.3 1.1-.2 2.2-.4 3.4-.4 2.3 0 4.6.7 6.5 1.9 1 .5 1.8 1.2 2.7 2 1 1 1.7 1.8 2.1 2.5l-1.5 1zM507 87.1c-4 4.5-10.6 6.2-16.4 4.4V86c-2.2-1-3.9-2.8-5-5.2V49.3c4.2-4.2 12.1-4.2 17-.4 4.8 3.7 6.3 10.6 3.7 16.1l.2.2c1.4 1.4 2.7 3.1 3.4 5.1 2.3 5.6 1.2 12.3-2.9 16.8zm-1.8-20.3c-.5-.5-.9-.9-1.6-1.3 3-4.5 2.3-10.6-1.7-14.4-3.9-3.7-10.1-4-14.4-.8v30.1c.7 1.4 1.7 2.5 3 3.4V51.9c3.8-2 8.6-.5 10.8 3.2 2.2 3.8.9 8.8-2.7 11.1 5.6 1.9 8.6 7.8 6.9 13.4-1.7 5.4-7.5 8.6-13 7.2v3.1c4.5.9 9.2-.6 12.4-3.8 5.4-5.3 5.5-14 .3-19.3zm-12.6-1.6c3.9 1.2 8-2.1 7.9-6.1-.2-3.9-4-6.9-7.9-5.8v11.9zm0 2.9v16.5c3.9 1.3 8-.3 10.2-3.8 2-3.4 1.6-7.8-1.2-10.6-2.2-2.4-5.9-3.1-9-2.1zM538.8 56.8v35.3h-2.1V56.8c0-4.8-4-8.8-8.8-8.8-4.8 0-8.7 4-8.7 8.8v16.7l3.1 1.8V56.8c0-3 2.5-5.7 5.6-5.7 3.1 0 5.7 2.7 5.7 5.7v21.3c-3.1-1.8-6.1-3.5-9.2-5.3v3.6c3.1 1.8 6.1 3.5 9.2 5.3v10.4h-2.1V83l-7.1-4.1v13.3h-2.1V77.7l-3.1-1.8v16.3h-2.1V56.8c0-5.3 3.9-9.8 9-10.7 6.6-1.1 12.7 4 12.7 10.7zm-14.4 13.7l7.1 4V56.8c0-2-1.6-3.6-3.6-3.6-1.9 0-3.5 1.6-3.5 3.6v13.7zM564.2 48.1c-2.6-.1-5.1.6-7.4 2-2.3 1.3-4 3-5.6 5-3 4.1-4.4 9-4.4 13.9s1.4 9.8 4.4 13.9c1.6 2 3.4 3.8 5.6 5 2.3 1.3 4.8 2 7.4 2V92c-2.9 0-5.9-.9-8.4-2.3s-4.6-3.4-6.2-5.6c-3.3-4.6-4.8-9.9-4.8-15.2s1.5-10.7 4.8-15.2c1.7-2.3 3.8-4.2 6.2-5.7 2.5-1.4 5.5-2.3 8.4-2.2v2.3zm0 5.2c-1.8 0-3.4.4-4.9 1.3-1.6.9-2.9 2.1-4 3.6-2.3 3-3.4 6.9-3.4 10.9S553 77 555.3 80c1.1 1.4 2.4 2.7 4 3.6 1.6.9 3.2 1.3 4.9 1.3V87c-2 0-4-.5-5.9-1.6-1.7-1-3.3-2.4-4.6-4.2-2.5-3.5-3.8-7.7-3.8-12.1s1.3-8.6 3.8-12.1c1.3-1.8 2.9-3.2 4.6-4.2 1.9-1.1 3.9-1.6 5.9-1.6v2.1zM572.3 62.3l13.1 29.8h-2.3l-5.5-12.6v12.6h-2.1V74.8l-3.1-7.2v24.6h-2.1V46h2.1v16.3zm7.7 4.4l11.2 25.4h-2.3l-13.4-30.5V46h2.1v8.1l3.5-8.1h2.3l-5.8 13.2v2l1.2 2.9 8.1-18.2h2.3L580 66.7z"/></g><g fill="#00D084"><path d="M78.6 30.8h2.5v4.9h-2.5zM86 30.8h2.5v4.9H86z"/></g><g fill="#CD8D78"><path d="M81.1 40.6H86v2.5h-4.9zM86 35.7v-2.5h-4.9v2.5h-2.5v-2.5h-2.4v4.9h2.4v2.5h2.5v-2.5H86v2.5h2.5v-4.9z"/></g><g fill="#9A574C"><path d="M78.6 28.3H86v2.5h-7.4zM88.5 33.2H91v7.4h-2.5zM86 40.6h2.5v2.5H86zM81.1 43.1H86v2.5h-4.9zM78.6 40.6h2.5v2.5h-2.5zM76.2 38.1h2.5v2.5h-2.5z"/></g><path fill="#D6A7A5" d="M83.6 57.8v4.9H86v2.5h2.5v2.4h2.4V60.3h2.5v-2.5z"/><g fill="#070009"><path d="M100.8 28.3h4.9v2.5h-4.9zM100.8 33.2h2.5v2.5h-2.5z"/><path d="M93.4 30.8v-2.5h-2.5v-2.5H78.6v2.5H86v2.5h4.9v9.8h-2.4v2.5H86v2.4h4.9v-2.4h2.5v-2.5h4.9v-2.5h2.5v-2.4h-2.5v-2.5h2.5v-2.4zM110.6 55.3h2.5v2.5h-2.5zM108.1 65.2h2.5v2.5h-2.5zM78.6 43.1h2.5v2.5h-2.5z"/><path d="M76.2 40.6h2.5v2.5h-2.5zM73.7 30.8h2.5v9.8h-2.5zM76.2 28.3h2.5v2.5h-2.5zM63.9 62.7h2.5v2.5h-2.5zM63.9 72.5h2.5V75h-2.5zM105.7 25.8h2.5v2.5h-2.5z"/></g><path fill="#452326" d="M95.8 50.4h2.5v2.5h-2.5z"/><g fill="#E71516"><path d="M81.1 38.1H86v2.5h-4.9zM76.2 45.5h2.5v7.4h-2.5zM71.3 52.9h2.5v2.5h-2.5zM66.4 57.8h2.4v-4.9h-2.4v2.4h-2.5v2.5h-2.5v2.5H59v4.9h2.4v-2.5h2.5v-2.4h2.5zM90.9 45.5h2.5V48h-2.5zM93.4 48h2.5v2.5h-2.5zM93.4 55.3v2.5h2.4v2.5h2.5v2.4h4.9v-2.4h-2.4v-2.5h-2.5v-2.5zM81.1 67.6h-2.5v2.5h-2.4V75h-2.5v2.5h-2.4v4.9h-2.5v2.4h-2.4v2.5h4.9v-2.5h2.4v-2.4h2.5v-2.5h2.4V75h2.5v-2.5h2.5v-2.4h-2.5zM103.2 70.1v-2.5h-7.4v-2.4h-2.4v2.4h-2.5v2.5h4.9v2.4h7.4V75h2.5v2.5h2.4v-7.4z"/></g><g fill="#AF1618"><path d="M73.7 82.4h2.5v2.5h-2.5zM68.8 87.3h2.5v2.5h-2.5z"/><path d="M71.3 84.8h2.5v2.5h-2.5zM76.2 79.9h2.5v2.5h-2.5zM78.6 75h2.5v2.5h-2.5zM81.1 72.5h2.5V75h-2.5zM88.5 70.1h7.4v2.5h-7.4z"/><path d="M95.8 72.5h7.4V75h-7.4zM81.1 67.6h2.5v2.5h-2.5zM78.6 65.2h2.5v2.5h-2.5z"/></g><g fill="#50344A"><path d="M63.9 89.7v2.5h-2.5v2.5H59v7.3h7.4v-4.9h-2.5v-2.4h2.5v-2.5h2.4v2.5h2.5v-5z"/><path d="M66.4 94.7h2.5v2.5h-2.5zM105.7 82.4v-2.5h2.4v-2.4h-7.3v12.2h7.3v-4.9h-4.9v-2.4z"/></g><g fill="#FF682A"><path d="M81.1 30.8H86v2.5h-4.9zM76.2 30.8h2.5v2.5h-2.5zM88.5 30.8H91v2.5h-2.5zM68.8 55.3h2.5v2.5h-2.5zM66.4 57.8h2.5v2.5h-2.5zM83.6 72.5h2.5V75h-2.5zM93.4 62.7h2.5v2.5h-2.5zM95.8 65.2h4.9v2.5h-4.9zM103.2 67.6h4.9v2.5h-4.9zM108.1 70.1h2.5V75h-2.5zM108.1 87.3h4.9v2.5h-4.9zM127.8 87.3h2.5v2.5h-2.5zM122.9 89.7h2.5v4.9h-2.5zM113.1 92.2h2.5v2.5h-2.5zM110.6 94.7h2.5v2.5h-2.5zM95.8 97.1h2.5v2.5h-2.5zM98.3 99.6h2.5v4.9h-2.5zM95.8 104.5h2.5v2.5h-2.5z"/><path d="M93.4 106.9h2.5v2.5h-2.5zM81.1 106.9h2.5v2.5h-2.5zM78.6 102h2.5v4.9h-2.5zM93.4 99.6h-2.5v-2.5H86v2.5h-2.4v4.9H86v2.4h4.9v-2.4h2.5zM81.1 75h2.5v2.5h-2.5zM78.6 77.5h2.5V80h-2.5zM76.2 82.4h2.5v2.5h-2.5zM73.7 84.8h2.5v2.5h-2.5zM71.3 87.3h2.5v2.5h-2.5zM63.9 60.3h2.5v2.5h-2.5zM95.8 52.9h2.5v2.5h-2.5zM98.3 55.3h2.5v2.5h-2.5zM100.8 57.8h2.5v2.5h-2.5zM54.1 116.8h2.5v2.5h-2.5zM63.9 114.3h2.5v2.5h-2.5zM63.9 102h2.5v2.5h-2.5zM66.4 104.5h4.9v4.9h-4.9zM66.4 99.6h2.5v2.5h-2.5zM59 116.8h4.9v2.5H59z"/></g><g fill="#F8AB7E"><path d="M95.8 97.1h-4.9v2.5h2.5v4.9h-2.5v2.4H86v-2.4h-2.4v-4.9h-2.5v7.3h2.5v2.5h9.8v-2.5h2.4v-2.4h2.5v-4.9h-2.5zM78.6 79.9h2.5v2.5h-2.5zM63.9 119.2h2.5v2.5h-2.5zM59 121.7h4.9v2.5H59zM54.1 121.7h2.5v2.5h-2.5zM59 126.6h4.9v2.5H59zM54.1 126.6h2.5v2.5h-2.5zM127.8 92.2h2.5v2.5h-2.5zM122.9 97.1h2.5v2.5h-2.5zM127.8 97.1h2.5v2.5h-2.5zM122.9 102h2.5v2.5h-2.5z"/></g><g fill="#C21E29"><path d="M110.6 97.1h2.5v2.5h-2.5zM113.1 94.7h2.5v2.5h-2.5zM95.8 94.7v2.4h2.5v2.5h2.5v4.9h-2.5v2.4h4.9v-2.4h2.5V102h2.4v-7.3zM76.2 67.6h2.5v2.5h-2.5zM66.4 109.4v2.5h-2.5v2.4h4.9v-2.4h2.5v-2.5h-2.5z"/></g><g fill="#202040"><path d="M22.1 116.8h27v2.5h-27zM59 111.9v2.4h-9.8v2.5h12.2v-2.5h2.5v-2.4zM81.1 106.9h-2.5V102h-2.4v4.9h-2.5v2.5h-2.4v2.5h-2.5v2.4H86v-2.4h9.8v-2.5H81.1zM95.8 106.9h7.4v2.5h-7.4zM103.2 104.5h2.5v2.5h-2.5zM105.7 102h2.5v2.5h-2.5zM110.6 97.1h-2.5v4.9h5v-2.4h-2.5zM113.1 97.1h2.5v2.5h-2.5z"/><path d="M115.5 94.7h2.5v2.5h-2.5zM120.4 92.2H118v2.5h2.4v2.4h2.5v-7.4h-2.5zM125.3 87.3h2.5v7.4h-2.5zM132.7 84.8h-2.4v4.9h2.4v-2.4h2.5v-4.9h-2.5zM135.2 79.9h2.5v2.5h-2.5zM137.6 75h2.5v4.9h-2.5zM140.1 70.1h2.5V75h-2.5z"/><path d="M142.5 62.7h2.5v7.4h-2.5zM63.9 109.4h2.5v2.5h-2.5z"/></g><g fill="#FF71F0"><path d="M0 106.9h2.5v2.5H0zM78.6 20.9h12.3v2.5H78.6zM90.9 23.4h2.5v2.5h-2.5zM73.7 23.4h2.5v2.5h-2.5z"/><path d="M71.3 25.8h2.5v2.5h-2.5zM68.8 30.8h2.5v9.8h-2.5zM71.3 40.6h2.5v2.5h-2.5zM73.7 43.1h2.5v2.5h-2.5zM93.4 25.8h2.5v2.5h-2.5zM95.8 28.3h2.5v2.5h-2.5zM95.8 40.6h2.5v2.5h-2.5zM105.7 55.3h2.5v2.5h-2.5zM73.7 55.3h2.5v2.5h-2.5zM66.4 50.4h2.5v2.5h-2.5zM63.9 52.9h2.5v2.5h-2.5zM61.4 55.3h2.5v2.5h-2.5zM59 57.8h2.5v2.5H59zM56.5 60.3H59v7.4h-2.5zM76.2 65.2h2.5v2.5h-2.5zM73.7 70.1h2.5v2.5h-2.5z"/><path d="M71.3 72.5h2.5V75h-2.5zM68.8 75h2.5v4.9h-2.5zM66.4 79.9h2.5v4.9h-2.5zM63.9 84.8h2.5v2.5h-2.5zM59 89.7h2.5v2.5H59zM56.5 92.2H59v2.5h-2.5zM68.8 99.6h7.4v2.5h-7.4zM76.2 97.1h2.5v2.5h-2.5z"/><path d="M78.6 94.7h2.5v2.5h-2.5zM83.6 92.2h4.9v2.5h-4.9zM93.4 89.7h2.5v2.5h-2.5zM95.8 84.8h2.5v4.9h-2.5zM120.4 82.4h4.9v2.5h-4.9zM125.3 79.9h4.9v2.5h-4.9zM130.3 77.5h2.5V80h-2.5zM132.7 75h2.5v2.5h-2.5z"/><path d="M113.1 84.8h7.4v2.5h-7.4zM54.1 102h2.5v2.5h-2.5zM76.2 57.8h2.5v2.5h-2.5zM7.4 109.4h4.9v2.5H7.4zM12.3 111.9h24.6v2.5H12.3zM36.9 109.4h7.4v2.5h-7.4zM44.2 106.9h7.4v2.5h-7.4z"/></g><g fill="#F7E8E3"><path d="M66.4 70.1v-2.5h2.4v-2.4h-7.4v4.9zM66.4 48h2.5v2.5h-2.5z"/><path d="M68.8 50.4h2.5v2.5h-2.5zM68.8 45.5V48h2.5v2.4h2.4V48h2.5v-2.5zM93.4 48H78.6v2.4h2.5v2.5H86v-2.5h4.9v2.5h4.9v-2.5h-2.4zM108.1 62.7h5v-4.9h-2.5v-2.5h-2.5v2.5h-2.4v2.5h2.4zM66.4 60.3h2.5v2.5h-2.5zM93.4 40.6h2.5v2.5h-2.5zM93.4 28.3h2.5v2.5h-2.5zM90.9 25.8h2.5v2.5h-2.5zM90.9 43.1h2.5v2.5h-2.5zM56.5 94.7H59v7.4h-2.5zM59 92.2h2.5v2.5H59zM61.4 89.7h2.5v2.5h-2.5zM63.9 87.3h2.5v2.5h-2.5zM68.8 79.9h2.5v2.5h-2.5zM71.3 75h2.5v2.5h-2.5zM73.7 72.5h2.5V75h-2.5zM98.3 77.5h2.5v12.3h-2.5zM105.7 89.7v2.5h4.9v2.5h2.5v-2.5h2.4v-2.5z"/><path d="M115.5 87.3h7.4v2.5h-7.4zM125.3 84.8h2.5v2.5h-2.5zM100.8 75h2.5v2.5h-2.5zM44.2 111.9h4.9v2.5h-4.9zM51.6 109.4h4.9v2.5h-4.9zM56.5 106.9h4.9v2.5h-4.9zM61.4 104.5h4.9v2.5h-4.9zM66.4 102h7.4v2.5h-7.4z"/></g><g fill="#81BAEB"><path d="M113.1 87.3h2.5v2.5h-2.5zM120.4 84.8h4.9v2.5h-4.9z"/><path d="M125.3 82.4h2.5v2.5h-2.5zM36.9 111.9h7.4v2.5h-7.4zM44.2 109.4h7.4v2.5h-7.4zM51.6 104.5v4.9h4.9v-2.5h4.9v-2.4zM61.4 106.9h4.9v2.5h-4.9z"/></g><g fill="#4D84B3"><path d="M2.5 109.4h4.9v2.5H2.5zM7.4 111.9h4.9v2.5H7.4zM12.3 114.3h36.9v2.5H12.3zM56.5 109.4v2.5h-7.3v2.4H59v-2.4h4.9v-2.5zM73.7 104.5h-2.4v4.9h2.4v-2.5h2.5V102h-2.5zM81.1 94.7h7.4v2.5h-7.4zM88.5 92.2h7.4v2.5h-7.4zM95.8 89.7h9.8v2.5h-9.8zM108.1 92.2h2.5v2.5h-2.5zM115.5 89.7v5h2.5v-2.5h2.4v-2.5zM122.9 87.3h2.5v2.5h-2.5zM135.2 77.5h-2.5v2.4h-2.4v2.5h-2.5v4.9h2.5v-2.5h2.4v-2.4h2.5v-2.5h2.4V75h-2.4zM137.6 72.5h2.5V75h-2.5zM78.6 97.1h2.5v2.5h-2.5z"/></g><g fill="#293F6D"><path d="M51.6 116.8h2.5v2.5h-2.5zM56.5 116.8H59v2.5h-2.5zM61.4 114.3h2.5v2.5h-2.5zM66.4 114.3h2.5v2.5h-2.5zM76.2 99.6v2.4h4.9v-2.4h-2.5zM81.1 97.1v2.5H86v-2.5h-2.4zM90.9 94.7h-2.4v2.4H95.8v-2.4h-2.4zM95.8 92.2h12.3v2.5H95.8zM108.1 94.7h2.5v2.5h-2.5z"/></g><g fill="#5F374D"><path d="M61.4 62.7h2.5v2.5h-2.5zM59 65.2h2.5v4.9H59zM95.8 43.1h-2.4V48h2.4v2.4h2.5v-4.9h-2.5zM81.1 45.5h9.8V48h-9.8zM76.2 43.1h2.5v2.5h-2.5zM73.7 40.6h2.5v2.5h-2.5zM73.7 30.8h2.5v-2.5h2.4v-2.5h12.3v-2.4H76.2v2.4h-2.5v2.5h-2.4v12.3h2.4zM66.4 87.3h2.5v2.5h-2.5zM103.2 75h2.5v2.5h-2.5zM78.6 60.3h2.5v4.9h-2.5zM81.1 65.2h2.5v2.5h-2.5zM86 67.6h-2.4v4.9h4.9v-2.4H86zM88.5 67.6H91v2.5h-2.5z"/><path d="M90.9 62.7h2.5v4.9h-2.5zM105.7 62.7h2.5v2.5h-2.5zM103.2 55.3h2.5v7.4h-2.5zM73.7 52.9h4.9v2.5h-4.9z"/><path d="M78.6 55.3h14.7v2.5H78.6zM93.4 52.9h2.5v2.5h-2.5z"/></g><g fill="#A48E92"><path d="M78.6 45.5h2.5V48h-2.5zM59 102h-2.5v2.5h7.4V102h-2.5zM63.9 94.7h2.5v2.5h-2.5zM66.4 92.2h2.5v2.5h-2.5zM103.2 82.4h2.5v2.5h-2.5zM105.7 79.9h2.5v2.5h-2.5zM61.4 70.1v2.4h5v-2.4h-2.5zM66.4 67.6h2.5v2.5h-2.5zM68.8 52.9h2.5v2.5h-2.5zM68.8 48h2.5v2.5h-2.5zM76.2 50.4V48h-2.5v2.4h-2.4v2.5h4.9zM76.2 55.3h2.5v2.5h-2.5zM81.1 60.3v4.9h2.5v2.4H86v2.5h2.5v-4.9H86v-2.5h-2.4v-4.9h-5v2.5zM105.7 60.3h2.5v2.5h-2.5z"/><path d="M110.6 62.7h-2.5v2.5h5v-2.5zM90.9 50.4H86v2.5h-4.9v-2.5h-2.5v4.9h14.8v-2.4h-2.5z"/></g></svg>