<?xml version="1.0" encoding="utf-8"?>
<!-- Generator: Adobe Illustrator 18.1.1, SVG Export Plug-In . SVG Version: 6.00 Build 0)  -->
<svg version="1.1" id="Pixel" xmlns="http://www.w3.org/2000/svg" xmlns:xlink="http://www.w3.org/1999/xlink" x="0px" y="0px"
	 viewBox="0 0 600 150" enable-background="new 0 0 600 150" xml:space="preserve">
<g>
	<path fill="#FFFFFF" d="M163.9,48.1h-2.1H154V46h22.9v2.1H169v3.1h7.9v2H169v39h-2.2v-39h-2.9v39h-2.1v-39H154v-2h7.7h2.1h2.9v-3.1
		H163.9z"/>
	<path fill="#FFFFFF" d="M201.4,46h2.1v46.1h-2.1V74.6h-16.7v3.1h13.5v14.4h-2.1V79.8H190v12.3h-2.1V79.8h-3.1v12.3h-2.1V46h2.1
		v26.5h3.1V46h2.1v26.5h6.2V46h2.1v26.5h3.1V46z"/>
	<path fill="#FFFFFF" d="M213.6,48v17.6h3.1V51h13v2.1h-10.9v12.5h10.9v2h-16.1V85h3.1V70.7h13v2h-10.9V85h10.9v2.1h-10.9v3.1h10.9
		v2h-18.1v-2V46h18.1v2H213.6z M216.7,90.1v-3.1h-3.1v3.1H216.7z"/>
	<path fill="#FFFFFF" d="M267.8,65.7v2h-11h-5.1v24.5h-2.1V46h18.3V48h-11v3h11v2.1h-11v12.5H267.8z M254.7,48h-3.1v3h3.1V48z
		 M254.7,53.2h-3.1v12.5h3.1V53.2z M256.7,70.8h11v2.1h-11v19.3h-2V70.8H256.7z"/>
	<path fill="#FFFFFF" d="M294.7,46v23.8v11.4V82c0,2.4-0.9,4.9-2.7,6.8c-1.9,2.1-4.8,3.4-7.6,3.4c-2.8,0-5.7-1.2-7.6-3.4
		c-1-1.1-1.7-2.3-2.1-3.6c-0.3-0.9-0.5-1.9-0.5-3.2v-0.8V69.8V46h2v23.8v11.4V82c0,2,0.8,3.9,2.1,5.5c1.6,1.8,3.9,2.7,6.2,2.7
		c2.3,0,4.6-0.9,6.2-2.7c1.3-1.5,2-3.4,2.2-5.5v-0.8V69.8V46H294.7z M279,81.9v-0.7V69.8V46h2v23.8v11.4v0.6c0,0.8,0.3,1.6,0.9,2.3
		c0.6,0.8,1.5,1.1,2.5,1.1s1.9-0.3,2.5-1.1c0.6-0.6,0.8-1.4,0.9-2.3v-0.6V69.8V46h2v23.8v11.4v0.7c0,1.3-0.6,2.6-1.4,3.6
		c-1,1.1-2.4,1.7-4,1.7s-2.9-0.6-4-1.7C279.5,84.6,279,83.4,279,81.9z"/>
	<path fill="#FFFFFF" d="M310.3,48.1h-2.1h-7.7V46h22.9v2.1h-7.9v3.1h7.9v2h-7.9v39h-2.2v-39h-2.9v39h-2.1v-39h-7.7v-2h7.7h2.1h2.9
		v-3.1H310.3z"/>
	<path fill="#FFFFFF" d="M349.8,46v23.8v11.4V82c0,2.4-0.9,4.9-2.7,6.8c-1.9,2.1-4.8,3.4-7.6,3.4s-5.7-1.2-7.6-3.4
		c-1-1.1-1.7-2.3-2.1-3.6c-0.3-0.9-0.5-1.9-0.5-3.2v-0.8V69.8V46h2v23.8v11.4V82c0,2,0.8,3.9,2.1,5.5c1.6,1.8,3.9,2.7,6.2,2.7
		s4.6-0.9,6.2-2.7c1.3-1.5,2-3.4,2.2-5.5v-0.8V69.8V46H349.8z M334,81.9v-0.7V69.8V46h2v23.8v11.4v0.6c0,0.8,0.3,1.6,0.9,2.3
		c0.6,0.8,1.5,1.1,2.5,1.1s1.9-0.3,2.5-1.1c0.6-0.6,0.8-1.4,0.9-2.3v-0.6V69.8V46h2v23.8v11.4v0.7c0,1.3-0.6,2.6-1.4,3.6
		c-1,1.1-2.4,1.7-4,1.7s-2.9-0.6-4-1.7C334.6,84.6,334.1,83.4,334,81.9z"/>
	<path fill="#FFFFFF" d="M371.7,76.4c0.5-0.6,1-1.2,1.5-1.8c3.4-4.8,4-11.1,1.7-16.5c-2.3-5.1-7.1-9-12.8-9.8l1.5,3.5
		c5.2,1.7,9.1,6.4,9.5,11.9c0.5,5.6-2.7,11.2-7.8,13.5v3.4c1.4-0.5,2.7-1.2,3.9-2.1l5.7,13.6h-2.3l-4.5-10.6
		c-0.9,0.5-1.9,0.9-2.9,1.2v9.4h-2.1V69.8l-3.1-7.4v29.8H358V52.1l9.1,21.5c0.9-0.9,1.7-1.7,2.3-2.7L358.9,46
		c2.3-0.1,4.5,0.2,6.5,0.9c5.7,1.9,10.3,6.5,12.1,12.2c1.9,6,0.7,12.7-3.4,17.7l6.5,15.4h-2.3L371.7,76.4z M370.5,68.3
		c1.3-4.2,0.1-8.7-2.8-11.7c-0.8-0.8-1.6-1.4-2.4-1.8V56L370.5,68.3z"/>
	<path fill="#FFFFFF" d="M386.8,48v17.6h3.1V51h13v2.1H392v12.5h10.9v2h-16.1V85h3.1V70.7h13v2H392V85h10.9v2.1H392v3.1h10.9v2
		h-18.1v-2V46h18.1v2H386.8z M389.9,90.1v-3.1h-3.1v3.1H389.9z"/>
	<path fill="#FFFFFF" d="M439.3,48H434v3.1h5.3v2.1H434v31.6h5.3V87h-10.2v3.1h10.2v2.1h-17.5v-2.1h5.3V87h-5.3v-2.1h5.3V53.2h-5.3
		v-2.1H432V48h-10.2V46h17.5V48z M432,84.9V53.2h-2.9v31.6H432z"/>
	<path fill="#FFFFFF" d="M461.5,56.3c-1.2-1.8-3.2-3-5.2-3c-1,0-2,0.2-2.9,0.8c-0.9,0.5-1.5,1.2-1.9,2c-0.4,0.8-0.5,1.7-0.4,2.6
		c0.2,0.9,0.6,1.7,1.3,2.5c0.7,0.8,1.3,1,3.1,2.1c1.4,0.9,2.8,1.6,4.4,2.5s3,1.9,4.6,3.3c0.8,0.7,1.5,1.4,2.2,2.4
		c0.6,1,1.2,2,1.6,3.1c0.4,1.2,0.6,2.3,0.6,3.5c0.1,1.1-0.1,2.2-0.2,3.2c-0.3,2.3-1.2,4.5-2.8,6.2s-3.5,3.1-5.7,3.8
		c-2.1,0.8-4.4,0.9-6.7,0.5c-2.1-0.4-4.1-1.2-5.9-2.3c-1.7-1.1-3.2-2.4-4.5-3.9l1.6-1.3c1.2,1.4,2.6,2.5,4,3.5c1.6,1,3.3,1.7,5.1,2
		s3.8,0.2,5.7-0.4c1.9-0.6,3.5-1.7,4.7-3.2c1.3-1.6,2.1-3.4,2.4-5.2c0.3-1.8,0.3-3.8-0.3-5.7c-0.6-1.9-1.9-3.5-3.2-4.7
		c-1.4-1.2-2.8-2.1-4.3-3c-1.4-0.9-2.9-1.6-4.3-2.5l-1.1-0.6c-0.9-0.5-1.7-1.2-2.5-1.9c-1-1.1-1.6-2.3-1.8-3.6
		c-0.2-1.3-0.1-2.6,0.6-3.9c0.6-1.3,1.5-2.3,2.7-2.9c1.2-0.7,2.5-1,3.9-1c2.7,0,5.7,1.6,6.9,4L461.5,56.3z M465.9,53.5
		c-0.3-0.5-0.6-0.8-0.9-1.2l-1-1c-0.8-0.7-1.5-1.3-2.3-1.7c-1.7-1-3.5-1.6-5.5-1.6c-1,0-1.9,0.1-2.8,0.3c-0.9,0.2-1.9,0.6-2.7,1.1
		c-1.7,1-3.1,2.4-3.9,4.2c-0.9,1.8-1.2,3.8-0.9,5.8c0.3,2,1.2,3.7,2.6,5.1c0.7,0.8,1.4,1.4,2.1,1.9c2.1,1.4,4.3,2.4,6.5,3.8
		c2.7,1.6,5.3,3.5,6.2,6.1c0.4,1.2,0.5,2.5,0.2,4.1c-0.2,1.4-0.8,2.7-1.7,3.7s-2,1.8-3.4,2.3c-1.4,0.4-2.8,0.5-4.2,0.3
		c-2.8-0.5-5.3-2.3-7.3-4.5l1.6-1.4c1.8,2,3.9,3.4,6.1,3.8c2.3,0.4,4.3-0.2,5.6-1.8c0.6-0.8,1-1.7,1.2-2.7c0.2-1.2,0.2-2.3-0.1-3.1
		c-0.3-0.8-0.9-1.6-1.8-2.5c-1-0.9-2.1-1.7-3.5-2.4c-3.2-1.9-6.7-3.3-9.1-6c-1.6-1.6-2.7-3.8-3.1-6.2c-0.4-2.4-0.1-4.9,1-7
		c1.1-2.2,2.7-3.9,4.7-5.1c1.1-0.6,2.1-1,3.2-1.3c1.1-0.2,2.2-0.4,3.4-0.4c2.3,0,4.6,0.7,6.5,1.9c1,0.5,1.8,1.2,2.7,2
		c1,1,1.7,1.8,2.1,2.5L465.9,53.5z"/>
	<path fill="#FFFFFF" d="M507,87.1c-4,4.5-10.6,6.2-16.4,4.4V86c-2.2-1-3.9-2.8-5-5.2V49.3c4.2-4.2,12.1-4.2,17-0.4
		c4.8,3.7,6.3,10.6,3.7,16.1l0.2,0.2c1.4,1.4,2.7,3.1,3.4,5.1C512.2,75.9,511.1,82.6,507,87.1z M505.2,66.8
		c-0.5-0.5-0.9-0.9-1.6-1.3c3-4.5,2.3-10.6-1.7-14.4c-3.9-3.7-10.1-4-14.4-0.8v30.1c0.7,1.4,1.7,2.5,3,3.4V51.9
		c3.8-2,8.6-0.5,10.8,3.2c2.2,3.8,0.9,8.8-2.7,11.1c5.6,1.9,8.6,7.8,6.9,13.4c-1.7,5.4-7.5,8.6-13,7.2v3.1c4.5,0.9,9.2-0.6,12.4-3.8
		C510.3,80.8,510.4,72.1,505.2,66.8z M492.6,65.2c3.9,1.2,8-2.1,7.9-6.1c-0.2-3.9-4-6.9-7.9-5.8V65.2z M492.6,68.1v16.5
		c3.9,1.3,8-0.3,10.2-3.8c2-3.4,1.6-7.8-1.2-10.6C499.4,67.8,495.7,67.1,492.6,68.1z"/>
	<path fill="#FFFFFF" d="M538.8,56.8v35.3h-2.1V56.8c0-4.8-4-8.8-8.8-8.8c-4.8,0-8.7,4-8.7,8.8v16.7l3.1,1.8V56.8
		c0-3,2.5-5.7,5.6-5.7c3.1,0,5.7,2.7,5.7,5.7v21.3c-3.1-1.8-6.1-3.5-9.2-5.3v3.6c3.1,1.8,6.1,3.5,9.2,5.3v10.4h-2.1V83l-7.1-4.1
		v13.3h-2.1V77.7l-3.1-1.8v16.3h-2.1V66.3v-9.5c0-5.3,3.9-9.8,9-10.7C532.7,45,538.8,50.1,538.8,56.8z M524.4,70.5l7.1,4V56.8
		c0-2-1.6-3.6-3.6-3.6c-1.9,0-3.5,1.6-3.5,3.6V70.5z"/>
	<path fill="#FFFFFF" d="M564.2,48.1c-2.6-0.1-5.1,0.6-7.4,2c-2.3,1.3-4,3-5.6,5c-3,4.1-4.4,9-4.4,13.9s1.4,9.8,4.4,13.9
		c1.6,2,3.4,3.8,5.6,5c2.3,1.3,4.8,2,7.4,2v2.1c-2.9,0-5.9-0.9-8.4-2.3c-2.5-1.4-4.6-3.4-6.2-5.6c-3.3-4.6-4.8-9.9-4.8-15.2
		s1.5-10.7,4.8-15.2c1.7-2.3,3.8-4.2,6.2-5.7c2.5-1.4,5.5-2.3,8.4-2.2V48.1z M564.2,53.3c-1.8,0-3.4,0.4-4.9,1.3
		c-1.6,0.9-2.9,2.1-4,3.6c-2.3,3-3.4,6.9-3.4,10.9s1.1,7.9,3.4,10.9c1.1,1.4,2.4,2.7,4,3.6c1.6,0.9,3.2,1.3,4.9,1.3v2.1
		c-2,0-4-0.5-5.9-1.6c-1.7-1-3.3-2.4-4.6-4.2c-2.5-3.5-3.8-7.7-3.8-12.1s1.3-8.6,3.8-12.1c1.3-1.8,2.9-3.2,4.6-4.2
		c1.9-1.1,3.9-1.6,5.9-1.6V53.3z"/>
	<path fill="#FFFFFF" d="M572.3,62.3l13.1,29.8h-2.3l-5.5-12.6v12.6h-2.1V74.8l-3.1-7.2v24.6h-2.1V46h2.1V62.3z M580,66.7l11.2,25.4
		h-2.3l-13.4-30.5V46h2.1v8.1l3.5-8.1h2.3l-5.8,13.2v2l1.2,2.9l8.1-18.2h2.3L580,66.7z"/>
</g>
<g>
	<g>
		<rect x="78.6" y="30.8" fill="#00D084" width="2.5" height="4.9"/>
		<rect x="86" y="30.8" fill="#00D084" width="2.5" height="4.9"/>
	</g>
	<g>
		<rect x="81.1" y="40.6" fill="#CD8D78" width="4.9" height="2.5"/>
		<polygon fill="#CD8D78" points="86,35.7 86,33.2 81.1,33.2 81.1,35.7 78.6,35.7 78.6,33.2 76.2,33.2 76.2,38.1 78.6,38.1 
			78.6,40.6 81.1,40.6 81.1,38.1 86,38.1 86,40.6 88.5,40.6 88.5,35.7 		"/>
	</g>
	<g>
		<rect x="78.6" y="28.3" fill="#9A574C" width="7.4" height="2.5"/>
		<rect x="88.5" y="33.2" fill="#9A574C" width="2.5" height="7.4"/>
		<rect x="86" y="40.6" fill="#9A574C" width="2.5" height="2.5"/>
		<rect x="81.1" y="43.1" fill="#9A574C" width="4.9" height="2.5"/>
		<rect x="78.6" y="40.6" fill="#9A574C" width="2.5" height="2.5"/>
		<rect x="76.2" y="38.1" fill="#9A574C" width="2.5" height="2.5"/>
	</g>
	<polygon fill="#D6A7A5" points="83.6,57.8 83.6,62.7 86,62.7 86,65.2 88.5,65.2 88.5,67.6 90.9,67.6 90.9,62.7 90.9,60.3 
		93.4,60.3 93.4,57.8 	"/>
	<g>
		<rect x="100.8" y="28.3" fill="#070009" width="4.9" height="2.5"/>
		<rect x="100.8" y="33.2" fill="#070009" width="2.5" height="2.5"/>
		<polygon fill="#070009" points="93.4,30.8 93.4,28.3 90.9,28.3 90.9,25.8 78.6,25.8 78.6,28.3 86,28.3 86,30.8 90.9,30.8 
			90.9,40.6 88.5,40.6 88.5,43.1 86,43.1 86,45.5 90.9,45.5 90.9,43.1 93.4,43.1 93.4,40.6 98.3,40.6 98.3,38.1 100.8,38.1 
			100.8,35.7 98.3,35.7 98.3,33.2 100.8,33.2 100.8,30.8 		"/>
		<rect x="110.6" y="55.3" fill="#070009" width="2.5" height="2.5"/>
		<rect x="108.1" y="65.2" fill="#070009" width="2.5" height="2.5"/>
		<rect x="78.6" y="43.1" fill="#070009" width="2.5" height="2.5"/>
		<rect x="76.2" y="40.6" fill="#070009" width="2.5" height="2.5"/>
		<rect x="73.7" y="30.8" fill="#070009" width="2.5" height="9.8"/>
		<rect x="76.2" y="28.3" fill="#070009" width="2.5" height="2.5"/>
		<rect x="63.9" y="62.7" fill="#070009" width="2.5" height="2.5"/>
		<rect x="63.9" y="72.5" fill="#070009" width="2.5" height="2.5"/>
		<rect x="105.7" y="25.8" fill="#070009" width="2.5" height="2.5"/>
	</g>
	<rect x="95.8" y="50.4" fill="#452326" width="2.5" height="2.5"/>
	<g>
		<rect x="81.1" y="38.1" fill="#E71516" width="4.9" height="2.5"/>
		<rect x="76.2" y="45.5" fill="#E71516" width="2.5" height="7.4"/>
		<rect x="71.3" y="52.9" fill="#E71516" width="2.5" height="2.5"/>
		<polygon fill="#E71516" points="66.4,57.8 68.8,57.8 68.8,52.9 66.4,52.9 66.4,55.3 63.9,55.3 63.9,57.8 61.4,57.8 61.4,60.3 
			59,60.3 59,65.2 61.4,65.2 61.4,62.7 63.9,62.7 63.9,60.3 66.4,60.3 		"/>
		<rect x="90.9" y="45.5" fill="#E71516" width="2.5" height="2.5"/>
		<rect x="93.4" y="48" fill="#E71516" width="2.5" height="2.5"/>
		<polygon fill="#E71516" points="93.4,55.3 93.4,57.8 95.8,57.8 95.8,60.3 98.3,60.3 98.3,62.7 103.2,62.7 103.2,60.3 100.8,60.3 
			100.8,57.8 98.3,57.8 98.3,55.3 		"/>
		<polygon fill="#E71516" points="81.1,67.6 78.6,67.6 78.6,70.1 76.2,70.1 76.2,75 73.7,75 73.7,77.5 71.3,77.5 71.3,82.4 
			68.8,82.4 68.8,84.8 66.4,84.8 66.4,87.3 71.3,87.3 71.3,84.8 73.7,84.8 73.7,82.4 76.2,82.4 76.2,79.9 78.6,79.9 78.6,75 
			81.1,75 81.1,72.5 83.6,72.5 83.6,70.1 81.1,70.1 		"/>
		<polygon fill="#E71516" points="103.2,70.1 103.2,67.6 95.8,67.6 95.8,65.2 93.4,65.2 93.4,67.6 90.9,67.6 90.9,70.1 95.8,70.1 
			95.8,72.5 103.2,72.5 103.2,75 105.7,75 105.7,77.5 108.1,77.5 108.1,70.1 		"/>
	</g>
	<g>
		<rect x="73.7" y="82.4" fill="#AF1618" width="2.5" height="2.5"/>
		<rect x="68.8" y="87.3" fill="#AF1618" width="2.5" height="2.5"/>
		<rect x="71.3" y="84.8" fill="#AF1618" width="2.5" height="2.5"/>
		<rect x="76.2" y="79.9" fill="#AF1618" width="2.5" height="2.5"/>
		<rect x="78.6" y="75" fill="#AF1618" width="2.5" height="2.5"/>
		<rect x="81.1" y="72.5" fill="#AF1618" width="2.5" height="2.5"/>
		<rect x="88.5" y="70.1" fill="#AF1618" width="7.4" height="2.5"/>
		<rect x="95.8" y="72.5" fill="#AF1618" width="7.4" height="2.5"/>
		<rect x="81.1" y="67.6" fill="#AF1618" width="2.5" height="2.5"/>
		<rect x="78.6" y="65.2" fill="#AF1618" width="2.5" height="2.5"/>
	</g>
	<g>
		<polygon fill="#50344A" points="63.9,89.7 63.9,92.2 61.4,92.2 61.4,94.7 59,94.7 59,102 66.4,102 66.4,97.1 63.9,97.1 63.9,94.7 
			66.4,94.7 66.4,92.2 68.8,92.2 68.8,94.7 71.3,94.7 71.3,89.7 		"/>
		<rect x="66.4" y="94.7" fill="#50344A" width="2.5" height="2.5"/>
		<polygon fill="#50344A" points="105.7,82.4 105.7,79.9 108.1,79.9 108.1,77.5 100.8,77.5 100.8,89.7 108.1,89.7 108.1,84.8 
			103.2,84.8 103.2,82.4 		"/>
	</g>
	<g>
		<rect x="81.1" y="30.8" fill="#FF682A" width="4.9" height="2.5"/>
		<rect x="76.2" y="30.8" fill="#FF682A" width="2.5" height="2.5"/>
		<rect x="88.5" y="30.8" fill="#FF682A" width="2.5" height="2.5"/>
		<rect x="68.8" y="55.3" fill="#FF682A" width="2.5" height="2.5"/>
		<rect x="66.4" y="57.8" fill="#FF682A" width="2.5" height="2.5"/>
		<rect x="83.6" y="72.5" fill="#FF682A" width="2.5" height="2.5"/>
		<rect x="93.4" y="62.7" fill="#FF682A" width="2.5" height="2.5"/>
		<rect x="95.8" y="65.2" fill="#FF682A" width="4.9" height="2.5"/>
		<rect x="103.2" y="67.6" fill="#FF682A" width="4.9" height="2.5"/>
		<rect x="108.1" y="70.1" fill="#FF682A" width="2.5" height="4.9"/>
		<rect x="108.1" y="87.3" fill="#FF682A" width="4.9" height="2.5"/>
		<rect x="127.8" y="87.3" fill="#FF682A" width="2.5" height="2.5"/>
		<rect x="122.9" y="89.7" fill="#FF682A" width="2.5" height="4.9"/>
		<rect x="113.1" y="92.2" fill="#FF682A" width="2.5" height="2.5"/>
		<rect x="110.6" y="94.7" fill="#FF682A" width="2.5" height="2.5"/>
		<rect x="95.8" y="97.1" fill="#FF682A" width="2.5" height="2.5"/>
		<rect x="98.3" y="99.6" fill="#FF682A" width="2.5" height="4.9"/>
		<rect x="95.8" y="104.5" fill="#FF682A" width="2.5" height="2.5"/>
		<rect x="93.4" y="106.9" fill="#FF682A" width="2.5" height="2.5"/>
		<rect x="81.1" y="106.9" fill="#FF682A" width="2.5" height="2.5"/>
		<rect x="78.6" y="102" fill="#FF682A" width="2.5" height="4.9"/>
		<polygon fill="#FF682A" points="93.4,99.6 90.9,99.6 90.9,97.1 86,97.1 86,99.6 83.6,99.6 83.6,104.5 86,104.5 86,106.9 
			90.9,106.9 90.9,104.5 93.4,104.5 		"/>
		<rect x="81.1" y="75" fill="#FF682A" width="2.5" height="2.5"/>
		<rect x="78.6" y="77.5" fill="#FF682A" width="2.5" height="2.5"/>
		<rect x="76.2" y="82.4" fill="#FF682A" width="2.5" height="2.5"/>
		<rect x="73.7" y="84.8" fill="#FF682A" width="2.5" height="2.5"/>
		<rect x="71.3" y="87.3" fill="#FF682A" width="2.5" height="2.5"/>
		<rect x="63.9" y="60.3" fill="#FF682A" width="2.5" height="2.5"/>
		<rect x="95.8" y="52.9" fill="#FF682A" width="2.5" height="2.5"/>
		<rect x="98.3" y="55.3" fill="#FF682A" width="2.5" height="2.5"/>
		<rect x="100.8" y="57.8" fill="#FF682A" width="2.5" height="2.5"/>
		<rect x="54.1" y="116.8" fill="#FF682A" width="2.5" height="2.5"/>
		<rect x="63.9" y="114.3" fill="#FF682A" width="2.5" height="2.5"/>
		<rect x="63.9" y="102" fill="#FF682A" width="2.5" height="2.5"/>
		<rect x="66.4" y="104.5" fill="#FF682A" width="4.9" height="4.9"/>
		<rect x="66.4" y="99.6" fill="#FF682A" width="2.5" height="2.5"/>
		<rect x="59" y="116.8" fill="#FF682A" width="4.9" height="2.5"/>
	</g>
	<g>
		<polygon fill="#F8AB7E" points="95.8,97.1 90.9,97.1 90.9,99.6 93.4,99.6 93.4,104.5 90.9,104.5 90.9,106.9 86,106.9 86,104.5 
			83.6,104.5 83.6,99.6 81.1,99.6 81.1,106.9 83.6,106.9 83.6,109.4 93.4,109.4 93.4,106.9 95.8,106.9 95.8,104.5 98.3,104.5 
			98.3,99.6 95.8,99.6 		"/>
		<rect x="78.6" y="79.9" fill="#F8AB7E" width="2.5" height="2.5"/>
		<rect x="63.9" y="119.2" fill="#F8AB7E" width="2.5" height="2.5"/>
		<rect x="59" y="121.7" fill="#F8AB7E" width="4.9" height="2.5"/>
		<rect x="54.1" y="121.7" fill="#F8AB7E" width="2.5" height="2.5"/>
		<rect x="59" y="126.6" fill="#F8AB7E" width="4.9" height="2.5"/>
		<rect x="54.1" y="126.6" fill="#F8AB7E" width="2.5" height="2.5"/>
		<rect x="127.8" y="92.2" fill="#F8AB7E" width="2.5" height="2.5"/>
		<rect x="122.9" y="97.1" fill="#F8AB7E" width="2.5" height="2.5"/>
		<rect x="127.8" y="97.1" fill="#F8AB7E" width="2.5" height="2.5"/>
		<rect x="122.9" y="102" fill="#F8AB7E" width="2.5" height="2.5"/>
	</g>
	<g>
		<rect x="110.6" y="97.1" fill="#C21E29" width="2.5" height="2.5"/>
		<rect x="113.1" y="94.7" fill="#C21E29" width="2.5" height="2.5"/>
		<polygon fill="#C21E29" points="95.8,94.7 95.8,97.1 98.3,97.1 98.3,99.6 100.8,99.6 100.8,104.5 98.3,104.5 98.3,106.9 
			103.2,106.9 103.2,104.5 105.7,104.5 105.7,102 108.1,102 108.1,94.7 		"/>
		<rect x="76.2" y="67.6" fill="#C21E29" width="2.5" height="2.5"/>
		<polygon fill="#C21E29" points="66.4,109.4 66.4,111.9 63.9,111.9 63.9,114.3 66.4,114.3 68.8,114.3 68.8,111.9 71.3,111.9 
			71.3,109.4 68.8,109.4 		"/>
	</g>
	<g>
		<rect x="22.1" y="116.8" fill="#202040" width="27" height="2.5"/>
		<polygon fill="#202040" points="59,111.9 59,114.3 49.2,114.3 49.2,116.8 61.4,116.8 61.4,114.3 63.9,114.3 63.9,111.9 		"/>
		<polygon fill="#202040" points="81.1,106.9 78.6,106.9 78.6,102 76.2,102 76.2,106.9 73.7,106.9 73.7,109.4 71.3,109.4 
			71.3,111.9 68.8,111.9 68.8,114.3 86,114.3 86,111.9 95.8,111.9 95.8,109.4 81.1,109.4 		"/>
		<rect x="95.8" y="106.9" fill="#202040" width="7.4" height="2.5"/>
		<rect x="103.2" y="104.5" fill="#202040" width="2.5" height="2.5"/>
		<rect x="105.7" y="102" fill="#202040" width="2.5" height="2.5"/>
		<polygon fill="#202040" points="110.6,97.1 108.1,97.1 108.1,102 113.1,102 113.1,99.6 110.6,99.6 		"/>
		<rect x="113.1" y="97.1" fill="#202040" width="2.5" height="2.5"/>
		<rect x="115.5" y="94.7" fill="#202040" width="2.5" height="2.5"/>
		<polygon fill="#202040" points="120.4,92.2 118,92.2 118,94.7 120.4,94.7 120.4,97.1 122.9,97.1 122.9,89.7 120.4,89.7 		"/>
		<rect x="125.3" y="87.3" fill="#202040" width="2.5" height="7.4"/>
		<polygon fill="#202040" points="132.7,84.8 130.3,84.8 130.3,89.7 132.7,89.7 132.7,87.3 135.2,87.3 135.2,82.4 132.7,82.4 		"/>
		<rect x="135.2" y="79.9" fill="#202040" width="2.5" height="2.5"/>
		<rect x="137.6" y="75" fill="#202040" width="2.5" height="4.9"/>
		<rect x="140.1" y="70.1" fill="#202040" width="2.5" height="4.9"/>
		<rect x="142.5" y="62.7" fill="#202040" width="2.5" height="7.4"/>
		<rect x="63.9" y="109.4" fill="#202040" width="2.5" height="2.5"/>
	</g>
	<g>
		<rect y="106.9" fill="#FF71F0" width="2.5" height="2.5"/>
		<rect x="78.6" y="20.9" fill="#FF71F0" width="12.3" height="2.5"/>
		<rect x="90.9" y="23.4" fill="#FF71F0" width="2.5" height="2.5"/>
		<rect x="73.7" y="23.4" fill="#FF71F0" width="2.5" height="2.5"/>
		<rect x="71.3" y="25.8" fill="#FF71F0" width="2.5" height="2.5"/>
		<rect x="68.8" y="30.8" fill="#FF71F0" width="2.5" height="9.8"/>
		<rect x="71.3" y="40.6" fill="#FF71F0" width="2.5" height="2.5"/>
		<rect x="73.7" y="43.1" fill="#FF71F0" width="2.5" height="2.5"/>
		<rect x="93.4" y="25.8" fill="#FF71F0" width="2.5" height="2.5"/>
		<rect x="95.8" y="28.3" fill="#FF71F0" width="2.5" height="2.5"/>
		<rect x="95.8" y="40.6" fill="#FF71F0" width="2.5" height="2.5"/>
		<rect x="105.7" y="55.3" fill="#FF71F0" width="2.5" height="2.5"/>
		<rect x="73.7" y="55.3" fill="#FF71F0" width="2.5" height="2.5"/>
		<rect x="66.4" y="50.4" fill="#FF71F0" width="2.5" height="2.5"/>
		<rect x="63.9" y="52.9" fill="#FF71F0" width="2.5" height="2.5"/>
		<rect x="61.4" y="55.3" fill="#FF71F0" width="2.5" height="2.5"/>
		<rect x="59" y="57.8" fill="#FF71F0" width="2.5" height="2.5"/>
		<rect x="56.5" y="60.3" fill="#FF71F0" width="2.5" height="7.4"/>
		<rect x="76.2" y="65.2" fill="#FF71F0" width="2.5" height="2.5"/>
		<rect x="73.7" y="70.1" fill="#FF71F0" width="2.5" height="2.5"/>
		<rect x="71.3" y="72.5" fill="#FF71F0" width="2.5" height="2.5"/>
		<rect x="68.8" y="75" fill="#FF71F0" width="2.5" height="4.9"/>
		<rect x="66.4" y="79.9" fill="#FF71F0" width="2.5" height="4.9"/>
		<rect x="63.9" y="84.8" fill="#FF71F0" width="2.5" height="2.5"/>
		<rect x="59" y="89.7" fill="#FF71F0" width="2.5" height="2.5"/>
		<rect x="56.5" y="92.2" fill="#FF71F0" width="2.5" height="2.5"/>
		<rect x="68.8" y="99.6" fill="#FF71F0" width="7.4" height="2.5"/>
		<rect x="76.2" y="97.1" fill="#FF71F0" width="2.5" height="2.5"/>
		<rect x="78.6" y="94.7" fill="#FF71F0" width="2.5" height="2.5"/>
		<rect x="83.6" y="92.2" fill="#FF71F0" width="4.9" height="2.5"/>
		<rect x="93.4" y="89.7" fill="#FF71F0" width="2.5" height="2.5"/>
		<rect x="95.8" y="84.8" fill="#FF71F0" width="2.5" height="4.9"/>
		<rect x="120.4" y="82.4" fill="#FF71F0" width="4.9" height="2.5"/>
		<rect x="125.3" y="79.9" fill="#FF71F0" width="4.9" height="2.5"/>
		<rect x="130.3" y="77.5" fill="#FF71F0" width="2.5" height="2.5"/>
		<rect x="132.7" y="75" fill="#FF71F0" width="2.5" height="2.5"/>
		<rect x="113.1" y="84.8" fill="#FF71F0" width="7.4" height="2.5"/>
		<rect x="54.1" y="102" fill="#FF71F0" width="2.5" height="2.5"/>
		<rect x="76.2" y="57.8" fill="#FF71F0" width="2.5" height="2.5"/>
		<rect x="7.4" y="109.4" fill="#FF71F0" width="4.9" height="2.5"/>
		<rect x="12.3" y="111.9" fill="#FF71F0" width="24.6" height="2.5"/>
		<rect x="36.9" y="109.4" fill="#FF71F0" width="7.4" height="2.5"/>
		<rect x="44.2" y="106.9" fill="#FF71F0" width="7.4" height="2.5"/>
	</g>
	<g>
		<polygon fill="#F7E8E3" points="66.4,70.1 66.4,67.6 68.8,67.6 68.8,65.2 61.4,65.2 61.4,70.1 		"/>
		<rect x="66.4" y="48" fill="#F7E8E3" width="2.5" height="2.5"/>
		<rect x="68.8" y="50.4" fill="#F7E8E3" width="2.5" height="2.5"/>
		<polygon fill="#F7E8E3" points="68.8,45.5 68.8,48 71.3,48 71.3,50.4 73.7,50.4 73.7,48 76.2,48 76.2,45.5 		"/>
		<polygon fill="#F7E8E3" points="93.4,48 78.6,48 78.6,50.4 81.1,50.4 81.1,52.9 86,52.9 86,50.4 90.9,50.4 90.9,52.9 95.8,52.9 
			95.8,50.4 93.4,50.4 		"/>
		<polygon fill="#F7E8E3" points="108.1,62.7 113.1,62.7 113.1,57.8 110.6,57.8 110.6,55.3 108.1,55.3 108.1,57.8 105.7,57.8 
			105.7,60.3 108.1,60.3 		"/>
		<rect x="66.4" y="60.3" fill="#F7E8E3" width="2.5" height="2.5"/>
		<rect x="93.4" y="40.6" fill="#F7E8E3" width="2.5" height="2.5"/>
		<rect x="93.4" y="28.3" fill="#F7E8E3" width="2.5" height="2.5"/>
		<rect x="90.9" y="25.8" fill="#F7E8E3" width="2.5" height="2.5"/>
		<rect x="90.9" y="43.1" fill="#F7E8E3" width="2.5" height="2.5"/>
		<rect x="56.5" y="94.7" fill="#F7E8E3" width="2.5" height="7.4"/>
		<rect x="59" y="92.2" fill="#F7E8E3" width="2.5" height="2.5"/>
		<rect x="61.4" y="89.7" fill="#F7E8E3" width="2.5" height="2.5"/>
		<rect x="63.9" y="87.3" fill="#F7E8E3" width="2.5" height="2.5"/>
		<rect x="68.8" y="79.9" fill="#F7E8E3" width="2.5" height="2.5"/>
		<rect x="71.3" y="75" fill="#F7E8E3" width="2.5" height="2.5"/>
		<rect x="73.7" y="72.5" fill="#F7E8E3" width="2.5" height="2.5"/>
		<rect x="98.3" y="77.5" fill="#F7E8E3" width="2.5" height="12.3"/>
		<polygon fill="#F7E8E3" points="105.7,89.7 105.7,92.2 110.6,92.2 110.6,94.7 113.1,94.7 113.1,92.2 115.5,92.2 115.5,89.7 		"/>
		<rect x="115.5" y="87.3" fill="#F7E8E3" width="7.4" height="2.5"/>
		<rect x="125.3" y="84.8" fill="#F7E8E3" width="2.5" height="2.5"/>
		<rect x="100.8" y="75" fill="#F7E8E3" width="2.5" height="2.5"/>
		<rect x="44.2" y="111.9" fill="#F7E8E3" width="4.9" height="2.5"/>
		<rect x="51.6" y="109.4" fill="#F7E8E3" width="4.9" height="2.5"/>
		<rect x="56.5" y="106.9" fill="#F7E8E3" width="4.9" height="2.5"/>
		<rect x="61.4" y="104.5" fill="#F7E8E3" width="4.9" height="2.5"/>
		<rect x="66.4" y="102" fill="#F7E8E3" width="7.4" height="2.5"/>
	</g>
	<g>
		<rect x="113.1" y="87.3" fill="#81BAEB" width="2.5" height="2.5"/>
		<rect x="120.4" y="84.8" fill="#81BAEB" width="4.9" height="2.5"/>
		<rect x="125.3" y="82.4" fill="#81BAEB" width="2.5" height="2.5"/>
		<rect x="36.9" y="111.9" fill="#81BAEB" width="7.4" height="2.5"/>
		<rect x="44.2" y="109.4" fill="#81BAEB" width="7.4" height="2.5"/>
		<polygon fill="#81BAEB" points="51.6,104.5 51.6,109.4 56.5,109.4 56.5,106.9 61.4,106.9 61.4,104.5 		"/>
		<rect x="61.4" y="106.9" fill="#81BAEB" width="4.9" height="2.5"/>
	</g>
	<g>
		<rect x="2.5" y="109.4" fill="#4D84B3" width="4.9" height="2.5"/>
		<rect x="7.4" y="111.9" fill="#4D84B3" width="4.9" height="2.5"/>
		<rect x="12.3" y="114.3" fill="#4D84B3" width="36.9" height="2.5"/>
		<polygon fill="#4D84B3" points="56.5,109.4 56.5,111.9 49.2,111.9 49.2,114.3 59,114.3 59,111.9 63.9,111.9 63.9,109.4 		"/>
		<polygon fill="#4D84B3" points="73.7,104.5 71.3,104.5 71.3,109.4 73.7,109.4 73.7,106.9 76.2,106.9 76.2,102 73.7,102 		"/>
		<rect x="81.1" y="94.7" fill="#4D84B3" width="7.4" height="2.5"/>
		<rect x="88.5" y="92.2" fill="#4D84B3" width="7.4" height="2.5"/>
		<rect x="95.8" y="89.7" fill="#4D84B3" width="9.8" height="2.5"/>
		<rect x="108.1" y="92.2" fill="#4D84B3" width="2.5" height="2.5"/>
		<polygon fill="#4D84B3" points="115.5,89.7 115.5,94.7 118,94.7 118,92.2 120.4,92.2 120.4,89.7 		"/>
		<rect x="122.9" y="87.3" fill="#4D84B3" width="2.5" height="2.5"/>
		<polygon fill="#4D84B3" points="135.2,77.5 132.7,77.5 132.7,79.9 130.3,79.9 130.3,82.4 127.8,82.4 127.8,87.3 130.3,87.3 
			130.3,84.8 132.7,84.8 132.7,82.4 135.2,82.4 135.2,79.9 137.6,79.9 137.6,75 135.2,75 		"/>
		<rect x="137.6" y="72.5" fill="#4D84B3" width="2.5" height="2.5"/>
		<rect x="78.6" y="97.1" fill="#4D84B3" width="2.5" height="2.5"/>
	</g>
	<g>
		<rect x="51.6" y="116.8" fill="#293F6D" width="2.5" height="2.5"/>
		<rect x="56.5" y="116.8" fill="#293F6D" width="2.5" height="2.5"/>
		<rect x="61.4" y="114.3" fill="#293F6D" width="2.5" height="2.5"/>
		<rect x="66.4" y="114.3" fill="#293F6D" width="2.5" height="2.5"/>
		<polygon fill="#293F6D" points="76.2,99.6 76.2,102 78.6,102 81.1,102 81.1,99.6 78.6,99.6 		"/>
		<polygon fill="#293F6D" points="81.1,97.1 81.1,99.6 83.6,99.6 86,99.6 86,97.1 83.6,97.1 		"/>
		<polygon fill="#293F6D" points="90.9,94.7 88.5,94.7 88.5,97.1 90.9,97.1 93.4,97.1 95.8,97.1 95.8,94.7 93.4,94.7 		"/>
		<rect x="95.8" y="92.2" fill="#293F6D" width="12.3" height="2.5"/>
		<rect x="108.1" y="94.7" fill="#293F6D" width="2.5" height="2.5"/>
	</g>
	<g>
		<rect x="61.4" y="62.7" fill="#5F374D" width="2.5" height="2.5"/>
		<rect x="59" y="65.2" fill="#5F374D" width="2.5" height="4.9"/>
		<polygon fill="#5F374D" points="95.8,43.1 93.4,43.1 93.4,48 95.8,48 95.8,50.4 98.3,50.4 98.3,45.5 95.8,45.5 		"/>
		<rect x="81.1" y="45.5" fill="#5F374D" width="9.8" height="2.5"/>
		<rect x="76.2" y="43.1" fill="#5F374D" width="2.5" height="2.5"/>
		<rect x="73.7" y="40.6" fill="#5F374D" width="2.5" height="2.5"/>
		<polygon fill="#5F374D" points="73.7,30.8 76.2,30.8 76.2,28.3 78.6,28.3 78.6,25.8 90.9,25.8 90.9,23.4 76.2,23.4 76.2,25.8 
			73.7,25.8 73.7,28.3 71.3,28.3 71.3,40.6 73.7,40.6 		"/>
		<rect x="66.4" y="87.3" fill="#5F374D" width="2.5" height="2.5"/>
		<rect x="103.2" y="75" fill="#5F374D" width="2.5" height="2.5"/>
		<rect x="78.6" y="60.3" fill="#5F374D" width="2.5" height="4.9"/>
		<rect x="81.1" y="65.2" fill="#5F374D" width="2.5" height="2.5"/>
		<polygon fill="#5F374D" points="86,67.6 83.6,67.6 83.6,72.5 88.5,72.5 88.5,70.1 86,70.1 		"/>
		<rect x="88.5" y="67.6" fill="#5F374D" width="2.5" height="2.5"/>
		<rect x="90.9" y="62.7" fill="#5F374D" width="2.5" height="4.9"/>
		<rect x="105.7" y="62.7" fill="#5F374D" width="2.5" height="2.5"/>
		<rect x="103.2" y="55.3" fill="#5F374D" width="2.5" height="7.4"/>
		<rect x="73.7" y="52.9" fill="#5F374D" width="4.9" height="2.5"/>
		<rect x="78.6" y="55.3" fill="#5F374D" width="14.7" height="2.5"/>
		<rect x="93.4" y="52.9" fill="#5F374D" width="2.5" height="2.5"/>
	</g>
	<g>
		<rect x="78.6" y="45.5" fill="#A48E92" width="2.5" height="2.5"/>
		<polygon fill="#A48E92" points="59,102 56.5,102 56.5,104.5 59,104.5 61.4,104.5 63.9,104.5 63.9,102 61.4,102 		"/>
		<rect x="63.9" y="94.7" fill="#A48E92" width="2.5" height="2.5"/>
		<rect x="66.4" y="92.2" fill="#A48E92" width="2.5" height="2.5"/>
		<rect x="103.2" y="82.4" fill="#A48E92" width="2.5" height="2.5"/>
		<rect x="105.7" y="79.9" fill="#A48E92" width="2.5" height="2.5"/>
		<polygon fill="#A48E92" points="61.4,70.1 61.4,72.5 63.9,72.5 66.4,72.5 66.4,70.1 63.9,70.1 		"/>
		<rect x="66.4" y="67.6" fill="#A48E92" width="2.5" height="2.5"/>
		<rect x="68.8" y="52.9" fill="#A48E92" width="2.5" height="2.5"/>
		<rect x="68.8" y="48" fill="#A48E92" width="2.5" height="2.5"/>
		<polygon fill="#A48E92" points="76.2,50.4 76.2,48 73.7,48 73.7,50.4 71.3,50.4 71.3,52.9 73.7,52.9 76.2,52.9 		"/>
		<rect x="76.2" y="55.3" fill="#A48E92" width="2.5" height="2.5"/>
		<polygon fill="#A48E92" points="81.1,60.3 81.1,65.2 83.6,65.2 83.6,67.6 86,67.6 86,70.1 88.5,70.1 88.5,65.2 86,65.2 86,62.7 
			83.6,62.7 83.6,60.3 83.6,57.8 78.6,57.8 78.6,60.3 		"/>
		<rect x="105.7" y="60.3" fill="#A48E92" width="2.5" height="2.5"/>
		<polygon fill="#A48E92" points="110.6,62.7 108.1,62.7 108.1,65.2 110.6,65.2 113.1,65.2 113.1,62.7 		"/>
		<polygon fill="#A48E92" points="90.9,50.4 86,50.4 86,52.9 81.1,52.9 81.1,50.4 78.6,50.4 78.6,55.3 93.4,55.3 93.4,52.9 
			90.9,52.9 		"/>
	</g>
</g>
</svg>
